<svg height="1024" node-id="1" sillyvg="true" template-height="1024" template-width="1024" version="1.1" viewBox="0 0 1024 1024" width="1024" xmlns="http://www.w3.org/2000/svg" xmlns:xlink="http://www.w3.org/1999/xlink"><defs node-id="80"><linearGradient gradientUnits="objectBoundingBox" id="SVGID_1_" node-id="4" spreadMethod="pad" x1="512" x2="512" y1="1014.0526" y2="676.0316"><stop offset="0" stop-color="#e6e6e6" stop-opacity="0"/><stop offset="0.6023" stop-color="#e9e9e9" stop-opacity="0.6023"/><stop offset="0.9731" stop-color="#f1f1f1" stop-opacity="0.9731"/><stop offset="1" stop-color="#f2f2f2"/></linearGradient><linearGradient gradientUnits="objectBoundingBox" id="SVGID_00000002370628650355008590000016647995997477150903_" node-id="15" spreadMethod="pad" x1="335.3474" x2="667.5579" y1="163.5523" y2="163.5523"><stop offset="0" stop-color="#e6e6e6"/><stop offset="1" stop-color="#f2f2f2"/></linearGradient><linearGradient gradientUnits="objectBoundingBox" id="SVGID_00000100376642791671832030000001081993246511528840_" node-id="24" spreadMethod="pad" x1="661.9839" x2="786.6568" y1="130.7626" y2="346.7023"><stop offset="0" stop-color="#f2f2f2"/><stop offset="1" stop-color="#d9d9d9"/></linearGradient><linearGradient gradientUnits="objectBoundingBox" id="SVGID_00000024717494221334300370000014884475135824460682_" node-id="33" spreadMethod="pad" x1="816.1053" x2="816.1053" y1="306.6681" y2="585.5734"><stop offset="0" stop-color="#d9d9d9"/><stop offset="1" stop-color="#bfbfbf"/></linearGradient><linearGradient gradientUnits="objectBoundingBox" id="SVGID_00000124142961439880204620000012074003606482902669_" node-id="42" spreadMethod="pad" x1="724.9053" x2="724.9053" y1="566.8787" y2="780.9839"><stop offset="0" stop-color="#bfbfbf"/><stop offset="1" stop-color="#a6a6a6"/></linearGradient><linearGradient gradientUnits="objectBoundingBox" id="SVGID_00000065786373702946824800000014667706739734211482_" node-id="46" spreadMethod="pad" x1="659.2123" x2="330.4087" y1="175.0632" y2="744.5677"><stop offset="0" stop-color="#f7f7f7"/><stop offset="1" stop-color="#dedede"/></linearGradient><linearGradient gradientUnits="objectBoundingBox" id="SVGID_00000152258586233999714150000004608305050682382213_" node-id="52" spreadMethod="pad" x1="496.9655" x2="496.9655" y1="575.4307" y2="251.707"><stop offset="0" stop-color="#52769e"/><stop offset="1" stop-color="#9dbbde"/></linearGradient><linearGradient gradientUnits="objectBoundingBox" id="SVGID_00000059992187882346747980000013329599187380766635_" node-id="56" spreadMethod="pad" x1="490.5052" x2="490.5052" y1="575.4965" y2="258.3176"><stop offset="0" stop-color="#a6c8ee"/><stop offset="1" stop-color="#daebff"/></linearGradient><linearGradient gradientUnits="objectBoundingBox" id="SVGID_00000105388076934989700070000011562133948401869698_" node-id="60" spreadMethod="pad" x1="497.9655" x2="497.9655" y1="687.0657" y2="600.8965"><stop offset="0" stop-color="#52769e"/><stop offset="1" stop-color="#9dbbde"/></linearGradient><linearGradient gradientUnits="objectBoundingBox" id="SVGID_00000103968888131291422740000001730141782121947797_" node-id="64" spreadMethod="pad" x1="490.5052" x2="490.5052" y1="687.0439" y2="603.6755"><stop offset="0" stop-color="#a6c8ee"/><stop offset="1" stop-color="#daebff"/></linearGradient><clipPath id="SVGID_00000063630464488290712940000000898682393034554496_" node-id="13"><path d="M 828.70 307.90 L 665.90 145.00 L 662.80 142.40 L 659.60 140.20 L 656.00 138.40 L 652.20 137.20 L 648.40 136.40 L 644.40 136.10 L 423.10 136.10 L 416.70 136.30 L 404.00 137.90 L 397.80 139.30 L 391.60 141.10 L 385.60 143.30 L 379.30 146.20 L 372.80 149.80 L 363.20 156.00 L 358.60 159.80 L 357.70 161.20 L 359.10 161.30 L 362.00 160.30 L 362.40 162.40 L 364.30 164.50 L 370.00 167.60 L 229.60 307.90 L 227.00 310.90 L 224.80 314.20 L 223.00 317.80 L 221.80 321.50 L 221.00 325.40 L 220.70 329.40 L 220.70 559.80 L 221.00 563.80 L 221.80 567.70 L 223.00 571.40 L 224.80 575.00 L 227.00 578.20 L 229.60 581.30 L 392.50 744.20 L 395.50 746.80 L 398.80 749.00 L 402.40 750.80 L 406.10 752.00 L 410.00 752.80 L 414.00 753.10 L 606.80 753.10 L 612.30 768.20 L 619.60 767.00 L 630.90 764.10 L 637.60 761.90 L 644.30 759.10 L 651.10 755.60 L 655.40 752.90 L 659.50 749.80 L 665.90 744.10 L 828.80 581.30 L 831.40 578.20 L 833.60 575.00 L 835.40 571.40 L 836.60 567.60 L 837.40 563.80 L 837.70 559.80 L 837.70 329.40 L 837.40 325.40 L 836.60 321.50 L 835.30 317.80 L 833.60 314.20 L 831.40 310.90 L 828.70 307.90 Z" fill="#000000" fill-rule="nonzero" node-id="147" stroke="none" target-height="632.1" target-width="617" target-x="220.7" target-y="136.1"/></clipPath><clipPath id="SVGID_00000181079892347333051480000006203325759635655331_" node-id="22"><path d="M 828.70 307.90 L 665.90 145.00 L 662.80 142.40 L 659.60 140.20 L 656.00 138.40 L 652.20 137.20 L 648.40 136.40 L 644.40 136.10 L 423.10 136.10 L 416.70 136.30 L 404.00 137.90 L 397.80 139.30 L 391.60 141.10 L 385.60 143.30 L 379.30 146.20 L 372.80 149.80 L 363.20 156.00 L 358.60 159.80 L 357.70 161.20 L 359.10 161.30 L 362.00 160.30 L 362.40 162.40 L 364.30 164.50 L 370.00 167.60 L 229.60 307.90 L 227.00 310.90 L 224.80 314.20 L 223.00 317.80 L 221.80 321.50 L 221.00 325.40 L 220.70 329.40 L 220.70 559.80 L 221.00 563.80 L 221.80 567.70 L 223.00 571.40 L 224.80 575.00 L 227.00 578.20 L 229.60 581.30 L 392.50 744.20 L 395.50 746.80 L 398.80 749.00 L 402.40 750.80 L 406.10 752.00 L 410.00 752.80 L 414.00 753.10 L 606.80 753.10 L 612.30 768.20 L 619.60 767.00 L 630.90 764.10 L 637.60 761.90 L 644.30 759.10 L 651.10 755.60 L 655.40 752.90 L 659.50 749.80 L 665.90 744.10 L 828.80 581.30 L 831.40 578.20 L 833.60 575.00 L 835.40 571.40 L 836.60 567.60 L 837.40 563.80 L 837.70 559.80 L 837.70 329.40 L 837.40 325.40 L 836.60 321.50 L 835.30 317.80 L 833.60 314.20 L 831.40 310.90 L 828.70 307.90 Z" fill="#000000" fill-rule="nonzero" node-id="151" stroke="none" target-height="632.1" target-width="617" target-x="220.7" target-y="136.1"/></clipPath><clipPath id="SVGID_00000067201853137775545680000008174338635341860250_" node-id="31"><path d="M 828.70 307.90 L 665.90 145.00 L 662.80 142.40 L 659.60 140.20 L 656.00 138.40 L 652.20 137.20 L 648.40 136.40 L 644.40 136.10 L 423.10 136.10 L 416.70 136.30 L 404.00 137.90 L 397.80 139.30 L 391.60 141.10 L 385.60 143.30 L 379.30 146.20 L 372.80 149.80 L 363.20 156.00 L 358.60 159.80 L 357.70 161.20 L 359.10 161.30 L 362.00 160.30 L 362.40 162.40 L 364.30 164.50 L 370.00 167.60 L 229.60 307.90 L 227.00 310.90 L 224.80 314.20 L 223.00 317.80 L 221.80 321.50 L 221.00 325.40 L 220.70 329.40 L 220.70 559.80 L 221.00 563.80 L 221.80 567.70 L 223.00 571.40 L 224.80 575.00 L 227.00 578.20 L 229.60 581.30 L 392.50 744.20 L 395.50 746.80 L 398.80 749.00 L 402.40 750.80 L 406.10 752.00 L 410.00 752.80 L 414.00 753.10 L 606.80 753.10 L 612.30 768.20 L 619.60 767.00 L 630.90 764.10 L 637.60 761.90 L 644.30 759.10 L 651.10 755.60 L 655.40 752.90 L 659.50 749.80 L 665.90 744.10 L 828.80 581.30 L 831.40 578.20 L 833.60 575.00 L 835.40 571.40 L 836.60 567.60 L 837.40 563.80 L 837.70 559.80 L 837.70 329.40 L 837.40 325.40 L 836.60 321.50 L 835.30 317.80 L 833.60 314.20 L 831.40 310.90 L 828.70 307.90 Z" fill="#000000" fill-rule="nonzero" node-id="155" stroke="none" target-height="632.1" target-width="617" target-x="220.7" target-y="136.1"/></clipPath><clipPath id="SVGID_00000118374120761832055500000011467030641711382203_" node-id="40"><path d="M 828.70 307.90 L 665.90 145.00 L 662.80 142.40 L 659.60 140.20 L 656.00 138.40 L 652.20 137.20 L 648.40 136.40 L 644.40 136.10 L 423.10 136.10 L 416.70 136.30 L 404.00 137.90 L 397.80 139.30 L 391.60 141.10 L 385.60 143.30 L 379.30 146.20 L 372.80 149.80 L 363.20 156.00 L 358.60 159.80 L 357.70 161.20 L 359.10 161.30 L 362.00 160.30 L 362.40 162.40 L 364.30 164.50 L 370.00 167.60 L 229.60 307.90 L 227.00 310.90 L 224.80 314.20 L 223.00 317.80 L 221.80 321.50 L 221.00 325.40 L 220.70 329.40 L 220.70 559.80 L 221.00 563.80 L 221.80 567.70 L 223.00 571.40 L 224.80 575.00 L 227.00 578.20 L 229.60 581.30 L 392.50 744.20 L 395.50 746.80 L 398.80 749.00 L 402.40 750.80 L 406.10 752.00 L 410.00 752.80 L 414.00 753.10 L 606.80 753.10 L 612.30 768.20 L 619.60 767.00 L 630.90 764.10 L 637.60 761.90 L 644.30 759.10 L 651.10 755.60 L 655.40 752.90 L 659.50 749.80 L 665.90 744.10 L 828.80 581.30 L 831.40 578.20 L 833.60 575.00 L 835.40 571.40 L 836.60 567.60 L 837.40 563.80 L 837.70 559.80 L 837.70 329.40 L 837.40 325.40 L 836.60 321.50 L 835.30 317.80 L 833.60 314.20 L 831.40 310.90 L 828.70 307.90 Z" fill="#000000" fill-rule="nonzero" node-id="159" stroke="none" target-height="632.1" target-width="617" target-x="220.7" target-y="136.1"/></clipPath></defs><path d="M 994.00 845.00 L 993.80 850.50 L 993.00 856.00 L 991.70 861.50 L 989.90 867.00 L 987.60 872.60 L 984.70 878.20 L 980.80 884.30 L 976.20 890.60 L 970.80 896.90 L 964.50 903.30 L 957.30 909.70 L 950.20 915.50 L 942.20 921.30 L 933.40 927.10 L 923.70 932.90 L 913.00 938.80 L 891.50 949.20 L 879.50 954.40 L 852.80 964.50 L 825.10 973.50 L 810.40 977.80 L 795.00 981.90 L 774.40 986.80 L 753.00 991.40 L 730.60 995.70 L 708.20 999.40 L 685.00 1002.80 L 661.20 1005.80 L 637.20 1008.20 L 612.80 1010.30 L 587.90 1011.90 L 562.90 1013.10 L 537.60 1013.80 L 512.00 1014.10 L 486.40 1013.80 L 461.10 1013.10 L 436.10 1011.90 L 411.20 1010.30 L 386.80 1008.20 L 362.80 1005.80 L 339.00 1002.80 L 315.80 999.40 L 293.40 995.70 L 271.00 991.40 L 249.60 986.80 L 229.00 981.90 L 213.60 977.80 L 198.90 973.50 L 171.20 964.50 L 144.50 954.40 L 132.50 949.20 L 111.00 938.80 L 100.30 932.90 L 90.60 927.10 L 81.80 921.30 L 73.80 915.50 L 66.70 909.70 L 59.50 903.30 L 53.20 896.90 L 47.80 890.60 L 43.20 884.30 L 39.30 878.20 L 36.40 872.60 L 34.10 867.00 L 32.30 861.50 L 31.00 856.00 L 30.20 850.50 L 30.00 845.00 L 30.20 839.50 L 31.00 834.00 L 32.30 828.60 L 34.10 823.10 L 36.40 817.50 L 39.30 811.90 L 43.20 805.70 L 47.80 799.50 L 53.20 793.20 L 59.50 786.80 L 66.70 780.40 L 73.80 774.60 L 81.80 768.80 L 90.60 763.00 L 100.30 757.10 L 111.00 751.30 L 132.50 740.80 L 144.50 735.70 L 171.20 725.50 L 198.90 716.60 L 213.60 712.30 L 229.00 708.20 L 249.60 703.30 L 271.00 698.70 L 293.40 694.40 L 315.80 690.70 L 339.00 687.30 L 362.80 684.30 L 386.80 681.80 L 411.20 679.80 L 436.10 678.10 L 461.10 677.00 L 486.40 676.30 L 512.00 676.00 L 537.60 676.30 L 562.90 677.00 L 587.90 678.10 L 612.80 679.80 L 637.20 681.80 L 661.20 684.30 L 685.00 687.30 L 708.20 690.70 L 730.60 694.40 L 753.00 698.70 L 774.40 703.30 L 795.00 708.20 L 810.40 712.30 L 825.10 716.60 L 852.80 725.50 L 879.50 735.70 L 891.50 740.80 L 913.00 751.30 L 923.70 757.10 L 933.40 763.00 L 942.20 768.80 L 950.20 774.60 L 957.30 780.40 L 964.50 786.80 L 970.80 793.20 L 976.20 799.50 L 980.80 805.70 L 984.70 811.90 L 987.60 817.50 L 989.90 823.10 L 991.70 828.60 L 993.00 834.00 L 993.80 839.50 L 994.00 845.00 Z" fill="url(#SVGID_1_)" fill-rule="nonzero" node-id="163" stroke="none" target-height="338.09998" target-width="964" target-x="30" target-y="676"/><g node-id="234"><g clip-path="url(#SVGID_00000063630464488290712940000000898682393034554496_)" group-id="1" node-id="167"><path d="M 385.40 123.80 L 335.40 171.80 L 352.50 203.30 L 608.70 167.50 L 667.60 131.60 Z" fill="url(#SVGID_00000002370628650355008590000016647995997477150903_)" fill-rule="nonzero" group-id="1,7" node-id="169" stroke="none" target-height="79.5" target-width="332.19998" target-x="335.4" target-y="123.8"/></g></g><g node-id="235"><g clip-path="url(#SVGID_00000181079892347333051480000006203325759635655331_)" group-id="2" node-id="175"><path d="M 660.90 131.40 L 601.40 166.70 L 791.20 337.20 L 847.70 311.50 Z" fill="url(#SVGID_00000100376642791671832030000001081993246511528840_)" fill-rule="nonzero" group-id="2,8" node-id="177" stroke="none" target-height="205.80002" target-width="246.29999" target-x="601.4" target-y="131.4"/></g></g><g node-id="236"><g clip-path="url(#SVGID_00000067201853137775545680000008174338635341860250_)" group-id="3" node-id="183"><path d="M 852.70 306.70 L 779.50 341.00 L 788.60 585.60 L 849.20 567.90 Z" fill="url(#SVGID_00000024717494221334300370000014884475135824460682_)" fill-rule="nonzero" group-id="3,9" node-id="185" stroke="none" target-height="278.89996" target-width="73.20001" target-x="779.5" target-y="306.7"/></g></g><g node-id="237"><g clip-path="url(#SVGID_00000118374120761832055500000011467030641711382203_)" group-id="4" node-id="191"><path d="M 854.10 566.90 L 780.60 585.10 L 595.70 773.40 L 637.80 781.00 Z" fill="url(#SVGID_00000124142961439880204620000012074003606482902669_)" fill-rule="nonzero" group-id="4,10" node-id="193" stroke="none" target-height="214.09998" target-width="258.39996" target-x="595.7" target-y="566.9"/></g></g><path d="M 610.00 151.30 L 379.70 151.30 L 375.60 151.60 L 371.70 152.40 L 368.00 153.70 L 364.40 155.40 L 361.20 157.60 L 358.10 160.30 L 195.30 323.10 L 192.60 326.20 L 190.40 329.40 L 188.70 333.00 L 187.40 336.80 L 186.60 340.60 L 186.30 344.60 L 186.30 575.00 L 186.60 579.00 L 187.40 582.90 L 188.70 586.60 L 190.40 590.20 L 192.60 593.50 L 195.30 596.50 L 358.10 759.40 L 361.20 762.00 L 364.40 764.20 L 368.00 766.00 L 371.80 767.20 L 375.60 768.00 L 379.70 768.30 L 610.00 768.30 L 614.00 768.00 L 617.90 767.20 L 621.60 766.00 L 625.20 764.20 L 628.50 762.00 L 631.50 759.40 L 794.40 596.50 L 797.00 593.50 L 799.20 590.20 L 801.00 586.60 L 802.20 582.90 L 803.00 579.00 L 803.30 575.00 L 803.30 344.70 L 803.00 340.60 L 802.20 336.80 L 801.00 333.00 L 799.20 329.50 L 797.00 326.20 L 794.40 323.10 L 631.50 160.30 L 628.50 157.60 L 625.20 155.40 L 621.60 153.70 L 617.90 152.40 L 614.00 151.60 L 610.00 151.30 Z" fill="url(#SVGID_00000065786373702946824800000014667706739734211482_)" fill-rule="nonzero" node-id="197" stroke="none" target-height="617" target-width="617" target-x="186.3" target-y="151.3"/><path d="M 596.50 183.80 L 393.10 183.80 L 389.10 184.00 L 385.20 184.80 L 381.40 186.10 L 377.90 187.80 L 374.60 190.00 L 371.60 192.70 L 227.70 336.60 L 225.00 339.60 L 222.80 342.90 L 221.10 346.40 L 219.80 350.20 L 219.00 354.10 L 218.80 358.10 L 218.80 561.50 L 219.00 565.60 L 219.80 569.40 L 221.10 573.20 L 222.80 576.70 L 225.00 580.00 L 227.70 583.10 L 371.60 726.90 L 374.60 729.60 L 377.90 731.80 L 381.40 733.50 L 385.20 734.80 L 389.10 735.60 L 393.10 735.90 L 596.50 735.90 L 600.60 735.60 L 604.40 734.80 L 608.20 733.50 L 611.70 731.80 L 615.00 729.60 L 618.10 726.90 L 761.90 583.10 L 764.60 580.00 L 766.80 576.70 L 768.50 573.20 L 769.80 569.40 L 770.60 565.60 L 770.90 561.50 L 770.90 358.10 L 770.60 354.10 L 769.80 350.20 L 768.50 346.40 L 766.80 342.90 L 764.60 339.60 L 761.90 336.60 L 618.10 192.70 L 615.00 190.00 L 611.70 187.80 L 608.20 186.10 L 604.40 184.80 L 600.60 184.00 L 596.50 183.80 Z" fill="#ffffff" fill-rule="nonzero" node-id="199" stroke="none" target-height="552.10004" target-width="552.10004" target-x="218.8" target-y="183.8"/><g node-id="238"><path d="M 555.30 280.40 L 555.00 276.50 L 554.30 272.80 L 553.00 269.20 L 551.40 265.90 L 549.30 262.90 L 546.90 260.10 L 544.10 257.70 L 541.10 255.60 L 537.80 254.00 L 534.20 252.70 L 530.50 252.00 L 526.60 251.70 L 471.60 251.70 L 468.70 251.80 L 463.30 252.80 L 456.90 255.30 L 451.50 258.60 L 445.20 263.90 L 442.00 267.50 L 438.60 271.90 L 443.70 294.80 L 456.90 540.20 L 457.20 544.10 L 458.00 547.80 L 459.20 551.30 L 460.90 554.70 L 462.90 557.70 L 465.30 560.50 L 468.10 562.90 L 471.10 564.90 L 474.50 566.60 L 478.00 567.90 L 481.70 568.60 L 485.60 568.90 L 504.50 568.90 L 505.90 575.40 L 509.90 575.00 L 516.20 573.30 L 522.60 570.10 L 528.10 566.00 L 533.40 560.40 L 537.30 554.80 L 539.60 549.90 L 541.10 543.60 L 555.30 280.40 Z" fill="url(#SVGID_00000152258586233999714150000004608305050682382213_)" fill-rule="nonzero" group-id="5" node-id="203" stroke="none" target-height="323.7" target-width="116.69998" target-x="438.6" target-y="251.7"/><path d="M 504.00 575.50 L 477.00 575.50 L 473.10 575.20 L 469.40 574.50 L 465.90 573.20 L 462.50 571.60 L 459.50 569.50 L 456.70 567.10 L 454.30 564.30 L 452.30 561.30 L 450.60 558.00 L 449.30 554.40 L 448.60 550.70 L 434.30 287.00 L 434.60 283.10 L 435.30 279.40 L 436.60 275.80 L 438.30 272.50 L 440.30 269.50 L 442.70 266.70 L 445.50 264.30 L 448.50 262.20 L 451.90 260.60 L 455.40 259.30 L 459.10 258.60 L 463.00 258.30 L 518.00 258.30 L 521.90 258.60 L 525.60 259.30 L 529.20 260.60 L 532.50 262.20 L 535.50 264.30 L 538.30 266.70 L 540.70 269.50 L 542.80 272.50 L 544.40 275.80 L 545.70 279.40 L 546.40 283.10 L 546.70 287.00 L 532.40 550.70 L 531.70 554.40 L 530.40 558.00 L 528.80 561.30 L 526.70 564.30 L 524.30 567.10 L 521.50 569.50 L 518.50 571.60 L 515.20 573.20 L 511.60 574.50 L 507.90 575.20 L 504.00 575.50 Z" fill="url(#SVGID_00000059992187882346747980000013329599187380766635_)" fill-rule="nonzero" group-id="5" node-id="205" stroke="none" target-height="317.2" target-width="112.400024" target-x="434.3" target-y="258.3"/><path d="M 539.70 642.60 L 539.40 638.30 L 538.80 634.10 L 537.80 630.20 L 534.60 622.70 L 530.10 616.10 L 524.50 610.40 L 517.90 606.00 L 510.40 602.80 L 506.40 601.80 L 502.30 601.10 L 494.90 601.00 L 490.00 601.70 L 485.40 602.70 L 479.00 604.70 L 472.20 607.90 L 472.60 609.60 L 469.40 612.30 L 466.50 615.20 L 463.90 618.50 L 461.70 622.00 L 459.80 625.80 L 458.30 629.70 L 457.20 633.80 L 456.50 638.10 L 456.30 642.60 L 456.60 647.60 L 457.40 652.30 L 458.80 656.80 L 460.70 661.20 L 463.00 665.20 L 465.70 669.00 L 468.90 672.40 L 472.30 675.40 L 476.20 678.10 L 480.30 680.30 L 484.60 682.10 L 489.30 683.30 L 490.10 687.00 L 496.80 686.60 L 502.10 685.50 L 510.00 682.90 L 518.30 679.00 L 522.40 676.40 L 525.70 673.70 L 528.70 670.70 L 531.50 667.40 L 533.90 663.80 L 535.90 659.90 L 537.50 655.90 L 538.70 651.60 L 539.40 647.20 L 539.70 642.60 Z" fill="url(#SVGID_00000105388076934989700070000011562133948401869698_)" fill-rule="nonzero" group-id="5" node-id="207" stroke="none" target-height="86" target-width="83.400024" target-x="456.3" target-y="601"/><path d="M 532.20 645.40 L 532.00 649.70 L 531.30 653.80 L 530.30 657.80 L 528.90 661.60 L 525.10 668.70 L 520.00 674.80 L 513.80 679.90 L 506.70 683.80 L 502.90 685.20 L 499.00 686.20 L 494.80 686.80 L 490.50 687.00 L 486.20 686.80 L 482.10 686.20 L 478.10 685.20 L 474.30 683.80 L 467.20 679.90 L 461.00 674.80 L 456.00 668.70 L 452.10 661.60 L 450.70 657.80 L 449.70 653.80 L 449.10 649.70 L 448.80 645.40 L 449.10 641.00 L 449.70 636.90 L 450.70 632.90 L 452.10 629.10 L 456.00 622.00 L 461.00 615.90 L 467.20 610.80 L 474.30 607.00 L 478.10 605.60 L 482.10 604.50 L 486.20 603.90 L 490.50 603.70 L 494.80 603.90 L 499.00 604.50 L 502.90 605.60 L 506.70 607.00 L 513.80 610.80 L 520.00 615.90 L 525.10 622.00 L 528.90 629.10 L 530.30 632.90 L 531.30 636.90 L 532.00 641.00 L 532.20 645.40 Z" fill="url(#SVGID_00000103968888131291422740000001730141782121947797_)" fill-rule="nonzero" group-id="5" node-id="209" stroke="none" target-height="83.29999" target-width="83.400024" target-x="448.8" target-y="603.7"/></g><g node-id="239"><path d="M 302.90 917.20 L 302.60 919.00 L 301.40 919.90 L 299.20 920.30 L 295.20 920.30 L 294.50 918.20 L 299.70 918.20 L 300.60 917.60 L 300.70 903.90 L 291.60 903.90 L 290.50 912.60 L 289.40 916.70 L 287.90 920.40 L 286.00 919.30 L 287.50 915.60 L 289.10 907.60 L 289.70 895.70 L 289.70 878.70 L 302.90 878.70 L 302.90 917.20 Z M 300.70 901.70 L 300.70 892.30 L 291.90 892.30 L 291.70 901.70 L 300.70 901.70 Z M 291.90 880.90 L 291.90 890.10 L 300.70 890.10 L 300.70 880.90 L 291.90 880.90 Z M 328.60 895.30 L 327.40 900.10 L 325.70 904.30 L 323.70 908.20 L 321.50 911.50 L 324.20 914.40 L 327.00 916.80 L 330.10 918.60 L 328.50 920.40 L 325.60 918.50 L 322.80 916.10 L 320.20 913.20 L 317.60 915.90 L 312.20 919.90 L 310.80 918.20 L 313.60 916.50 L 316.30 914.30 L 318.90 911.50 L 314.90 904.70 L 312.00 897.10 L 310.30 897.10 L 310.30 920.30 L 308.00 920.30 L 308.00 878.80 L 327.30 878.80 L 327.20 889.10 L 326.60 890.20 L 324.80 890.70 L 318.70 890.90 L 317.90 888.90 L 324.90 888.70 L 325.10 881.00 L 310.30 881.00 L 310.30 894.90 L 327.30 894.80 L 328.60 895.30 Z M 314.10 897.10 L 315.70 901.70 L 317.80 905.90 L 320.20 909.80 L 322.50 906.10 L 324.50 901.90 L 326.10 897.10 L 314.10 897.10 Z" fill="#999999" fill-rule="nonzero" group-id="6" node-id="214" stroke="none" target-height="41.700012" target-width="44.100006" target-x="286" target-y="878.7"/><path d="M 372.20 882.90 L 368.80 886.90 L 366.70 888.70 L 363.20 891.00 L 359.20 893.10 L 367.90 895.50 L 377.80 896.70 L 376.50 898.70 L 365.80 897.20 L 360.90 895.90 L 356.60 894.30 L 351.50 896.10 L 346.10 897.50 L 335.30 899.40 L 334.40 897.30 L 344.40 895.80 L 354.00 893.10 L 350.70 891.10 L 348.00 888.90 L 345.70 886.40 L 342.40 889.10 L 338.50 891.60 L 336.90 890.00 L 340.20 887.90 L 345.50 883.50 L 348.80 880.00 L 351.00 876.80 L 353.50 877.20 L 350.10 882.00 L 370.80 881.80 L 372.20 882.90 Z M 373.00 904.80 L 372.00 912.10 L 370.80 916.50 L 369.40 918.70 L 368.10 919.50 L 366.30 919.80 L 359.60 919.60 L 358.80 917.50 L 365.70 917.80 L 367.60 917.40 L 368.40 916.40 L 369.20 914.00 L 370.60 905.70 L 355.00 905.70 L 353.70 908.70 L 352.10 911.30 L 350.30 913.40 L 348.20 915.30 L 344.90 917.20 L 341.00 918.90 L 336.10 920.30 L 334.90 918.20 L 339.50 917.10 L 343.20 915.70 L 346.20 914.00 L 348.20 912.40 L 349.90 910.50 L 351.40 908.30 L 352.60 905.70 L 338.40 905.70 L 338.40 903.60 L 353.20 903.60 L 354.20 898.40 L 356.60 898.60 L 355.60 903.60 L 373.20 903.60 L 373.00 904.80 Z M 348.20 884.00 L 347.30 885.00 L 349.00 887.00 L 353.60 890.60 L 356.60 892.10 L 363.40 888.60 L 366.30 886.40 L 368.70 884.00 L 348.20 884.00 Z" fill="#999999" fill-rule="nonzero" group-id="6" node-id="216" stroke="none" target-height="43.5" target-width="43.399994" target-x="334.4" target-y="876.8"/><path d="M 387.70 885.10 L 383.70 890.70 L 382.40 888.80 L 384.40 886.40 L 386.20 883.50 L 389.00 877.00 L 391.10 877.50 L 388.90 882.90 L 399.20 882.90 L 399.20 885.10 L 387.70 885.10 Z M 392.60 900.80 L 399.50 900.80 L 399.50 903.00 L 392.60 903.00 L 392.60 914.80 L 398.40 911.50 L 399.00 913.60 L 389.60 919.50 L 388.30 917.50 L 389.60 916.20 L 390.20 915.20 L 390.50 913.70 L 390.50 903.00 L 383.30 903.00 L 383.30 900.80 L 390.50 900.80 L 390.50 893.30 L 385.20 893.30 L 385.20 891.10 L 398.40 891.10 L 398.40 893.30 L 392.60 893.30 L 392.60 900.80 Z M 425.80 893.00 L 425.80 895.20 L 400.40 895.20 L 400.40 893.00 L 406.50 893.00 L 406.50 885.70 L 401.60 885.70 L 401.60 883.60 L 406.50 883.60 L 406.50 876.80 L 408.60 876.80 L 408.60 883.60 L 416.40 883.60 L 416.40 876.80 L 418.60 876.80 L 418.60 883.60 L 424.70 883.60 L 424.70 885.70 L 418.60 885.70 L 418.60 893.00 L 425.80 893.00 Z M 403.00 899.80 L 422.20 899.80 L 422.20 920.00 L 420.00 920.00 L 420.00 918.00 L 405.20 918.00 L 405.20 920.20 L 403.00 920.20 L 403.00 899.80 Z M 405.20 901.90 L 405.20 907.80 L 420.00 907.80 L 420.00 901.90 L 405.20 901.90 Z M 420.00 916.00 L 420.00 909.80 L 405.20 909.80 L 405.20 916.00 L 420.00 916.00 Z M 408.60 893.00 L 416.40 893.00 L 416.40 885.70 L 408.60 885.70 L 408.60 893.00 Z" fill="#999999" fill-rule="nonzero" group-id="6" node-id="218" stroke="none" target-height="43.400024" target-width="43.399994" target-x="382.4" target-y="876.8"/><path d="M 446.10 909.60 L 446.90 911.50 L 437.60 918.40 L 436.40 916.20 L 437.30 915.30 L 437.80 913.20 L 437.80 894.20 L 430.50 894.20 L 430.50 892.00 L 440.00 892.00 L 440.00 913.60 L 446.10 909.60 Z M 440.50 887.30 L 437.40 883.70 L 433.40 879.90 L 435.00 878.50 L 440.80 884.00 L 442.10 885.50 L 440.50 887.30 Z M 460.60 907.10 L 461.90 909.80 L 463.60 912.20 L 465.60 914.30 L 468.00 916.10 L 470.80 917.50 L 473.90 918.50 L 472.50 920.50 L 469.40 919.30 L 466.70 917.80 L 464.30 916.00 L 462.20 913.90 L 460.50 911.50 L 459.00 908.70 L 457.90 911.40 L 456.40 913.70 L 454.60 915.80 L 452.30 917.40 L 449.40 918.90 L 445.60 920.30 L 444.20 918.40 L 448.00 917.20 L 451.00 915.70 L 453.10 914.10 L 454.90 912.10 L 456.30 909.80 L 457.20 907.10 L 445.70 907.10 L 445.70 905.00 L 457.70 905.00 L 458.40 898.70 L 447.50 898.70 L 447.50 896.50 L 471.90 896.50 L 471.90 898.70 L 460.70 898.70 L 459.90 905.00 L 473.90 905.00 L 473.90 907.10 L 460.60 907.10 Z M 470.40 891.40 L 448.90 891.40 L 448.90 879.10 L 470.40 879.10 L 470.40 891.40 Z M 468.20 881.20 L 451.10 881.20 L 451.10 889.30 L 468.20 889.30 L 468.20 881.20 Z" fill="#999999" fill-rule="nonzero" group-id="6" node-id="220" stroke="none" target-height="42" target-width="43.399994" target-x="430.5" target-y="878.5"/><path d="M 478.60 919.30 L 480.40 918.30 L 482.90 916.10 L 484.30 913.30 L 484.60 911.40 L 482.40 911.40 L 481.40 910.90 L 480.80 910.00 L 480.60 908.60 L 480.90 907.30 L 481.50 906.40 L 483.60 905.70 L 484.60 905.90 L 486.20 907.00 L 486.80 908.50 L 487.00 910.60 L 486.80 913.10 L 486.10 915.20 L 484.90 917.10 L 483.40 918.70 L 481.60 920.00 L 479.50 921.10 L 478.60 919.30 Z" fill="#999999" fill-rule="nonzero" group-id="6" node-id="222" stroke="none" target-height="15.399963" target-width="8.399994" target-x="478.6" target-y="905.7"/><path d="M 517.90 909.70 L 518.80 911.60 L 509.40 919.20 L 508.10 917.20 L 509.50 915.90 L 510.00 914.80 L 510.30 913.40 L 510.30 894.30 L 502.30 894.30 L 502.30 892.00 L 512.50 892.00 L 512.50 913.70 L 517.90 909.70 Z M 512.90 886.80 L 509.80 883.30 L 506.00 879.60 L 507.40 878.20 L 511.30 881.70 L 514.50 885.10 L 512.90 886.80 Z M 545.70 892.60 L 545.70 894.50 L 517.10 894.50 L 517.10 892.60 L 530.00 892.60 L 530.00 888.40 L 519.60 888.40 L 519.60 886.60 L 530.00 886.60 L 530.00 882.80 L 518.50 882.80 L 518.50 880.90 L 530.00 880.90 L 530.00 876.90 L 532.30 876.90 L 532.30 880.90 L 544.40 880.90 L 544.40 882.80 L 532.30 882.80 L 532.30 886.60 L 542.80 886.60 L 542.80 888.40 L 532.30 888.40 L 532.30 892.60 L 545.70 892.60 Z M 541.60 917.20 L 541.30 918.80 L 540.20 919.60 L 537.70 920.00 L 533.60 920.00 L 532.80 918.00 L 539.20 917.80 L 539.40 912.60 L 522.90 912.60 L 522.90 920.20 L 520.70 920.20 L 520.70 897.90 L 541.60 897.90 L 541.60 917.20 Z M 522.90 899.80 L 522.90 904.20 L 539.40 904.20 L 539.40 899.80 L 522.90 899.80 Z M 539.40 910.70 L 539.40 906.10 L 522.90 906.10 L 522.90 910.70 L 539.40 910.70 Z" fill="#999999" fill-rule="nonzero" group-id="6" node-id="224" stroke="none" target-height="43.299988" target-width="43.400024" target-x="502.3" target-y="876.9"/><path d="M 593.30 916.70 L 593.30 918.70 L 550.80 918.70 L 550.80 916.70 L 570.70 916.70 L 570.70 911.60 L 554.40 911.60 L 554.40 909.60 L 570.70 909.60 L 570.70 905.50 L 555.90 905.50 L 555.90 890.90 L 570.70 890.90 L 570.70 887.30 L 551.00 887.30 L 551.00 885.30 L 570.70 885.30 L 570.70 881.00 L 555.20 881.80 L 554.70 879.90 L 577.70 878.50 L 586.80 877.30 L 588.30 879.00 L 581.30 880.10 L 573.00 880.90 L 573.00 885.30 L 593.10 885.30 L 593.10 887.30 L 573.00 887.30 L 573.00 890.90 L 588.50 890.90 L 588.50 905.50 L 573.00 905.50 L 573.00 909.60 L 590.30 909.60 L 590.30 911.60 L 573.00 911.60 L 573.00 916.70 L 593.30 916.70 Z M 558.10 897.30 L 570.70 897.30 L 570.70 892.80 L 558.10 892.80 L 558.10 897.30 Z M 570.70 903.70 L 570.70 899.10 L 558.10 899.10 L 558.10 903.70 L 570.70 903.70 Z M 573.00 892.80 L 573.00 897.30 L 586.20 897.30 L 586.20 892.80 L 573.00 892.80 Z M 586.20 899.10 L 573.00 899.10 L 573.00 903.70 L 586.20 903.70 L 586.20 899.10 Z" fill="#999999" fill-rule="nonzero" group-id="6" node-id="226" stroke="none" target-height="41.400024" target-width="42.5" target-x="550.8" target-y="877.3"/><path d="M 605.30 905.70 L 603.10 910.80 L 600.30 915.00 L 598.50 913.70 L 601.20 909.80 L 603.20 905.20 L 605.30 905.70 Z M 610.90 903.10 L 610.90 916.50 L 610.60 918.00 L 609.80 918.80 L 609.00 919.00 L 605.30 919.10 L 604.50 917.00 L 608.20 917.10 L 608.60 917.00 L 608.80 916.50 L 608.80 903.10 L 598.70 903.10 L 598.70 901.00 L 608.80 901.00 L 608.80 895.20 L 598.50 895.20 L 598.50 893.10 L 612.00 893.10 L 614.90 884.60 L 617.10 885.20 L 614.20 893.10 L 620.90 893.10 L 620.90 895.20 L 610.90 895.20 L 610.90 901.00 L 620.50 901.00 L 620.50 903.10 L 610.90 903.10 Z M 620.10 884.10 L 599.20 884.10 L 599.20 882.00 L 609.50 882.00 L 607.00 877.30 L 609.00 876.70 L 611.90 882.00 L 620.10 882.00 L 620.10 884.10 Z M 604.80 892.70 L 604.10 889.00 L 602.70 885.10 L 604.60 884.70 L 606.10 888.50 L 606.90 892.10 L 604.80 892.70 Z M 615.20 905.10 L 617.50 909.20 L 619.30 913.10 L 617.50 914.00 L 615.70 910.10 L 613.40 905.90 L 615.20 905.10 Z M 641.70 895.30 L 635.90 895.30 L 635.90 920.10 L 633.70 920.10 L 633.70 895.30 L 624.90 895.30 L 624.50 905.00 L 623.00 912.80 L 622.10 915.30 L 619.60 919.90 L 617.90 918.50 L 619.80 915.30 L 621.10 911.80 L 622.40 904.60 L 622.70 881.50 L 633.60 879.20 L 637.90 877.90 L 639.90 879.60 L 632.90 881.60 L 624.90 883.00 L 624.90 893.20 L 641.70 893.20 L 641.70 895.30 Z" fill="#999999" fill-rule="nonzero" group-id="6" node-id="228" stroke="none" target-height="43.399963" target-width="43.200012" target-x="598.5" target-y="876.7"/><path d="M 667.20 887.10 L 665.70 909.90 L 664.30 916.30 L 662.90 918.30 L 660.70 919.00 L 655.50 919.00 L 654.80 916.60 L 659.90 916.80 L 660.80 916.70 L 661.60 916.10 L 662.20 915.10 L 662.90 912.40 L 663.90 903.50 L 664.90 888.00 L 656.90 888.00 L 655.80 900.00 L 654.70 905.80 L 653.20 911.10 L 651.80 914.50 L 648.40 920.00 L 646.40 918.60 L 648.20 916.20 L 649.80 913.40 L 651.10 910.20 L 652.60 905.20 L 653.60 899.60 L 654.70 888.00 L 647.40 888.00 L 647.40 885.70 L 654.70 885.70 L 654.80 876.90 L 657.10 876.90 L 657.00 885.70 L 667.20 885.70 L 667.20 887.10 Z M 687.40 883.10 L 687.40 919.40 L 685.00 919.40 L 685.00 916.10 L 673.90 916.10 L 673.90 919.70 L 671.70 919.70 L 671.70 883.10 L 687.40 883.10 Z M 685.00 913.90 L 685.00 885.40 L 673.90 885.40 L 673.90 913.90 L 685.00 913.90 Z" fill="#999999" fill-rule="nonzero" group-id="6" node-id="230" stroke="none" target-height="43.099976" target-width="41" target-x="646.4" target-y="876.9"/><path d="M 734.80 893.30 L 731.70 901.90 L 727.50 909.90 L 728.90 913.40 L 730.30 915.70 L 731.40 916.80 L 732.60 917.50 L 733.80 917.70 L 734.80 917.00 L 735.30 915.80 L 736.00 909.50 L 737.90 910.60 L 737.40 915.40 L 736.70 917.90 L 735.90 919.10 L 734.90 919.70 L 733.60 919.90 L 732.00 919.70 L 730.60 919.00 L 728.10 916.50 L 725.90 912.20 L 723.50 915.30 L 718.30 920.30 L 716.50 918.80 L 719.60 916.10 L 722.50 913.10 L 725.10 909.60 L 723.20 900.80 L 722.10 890.00 L 694.90 890.00 L 694.90 888.00 L 707.20 888.00 L 707.20 883.10 L 697.40 883.10 L 697.40 881.00 L 707.20 881.00 L 707.20 876.80 L 709.40 876.80 L 709.40 881.00 L 718.30 881.00 L 718.30 883.10 L 709.40 883.10 L 709.40 888.00 L 722.10 888.00 L 721.70 876.90 L 724.00 876.90 L 724.20 888.00 L 737.40 888.00 L 737.40 890.00 L 724.30 890.00 L 724.90 896.80 L 726.60 907.10 L 730.10 900.10 L 732.70 892.70 L 734.80 893.30 Z M 720.40 912.40 L 711.00 913.40 L 711.00 920.20 L 708.70 920.20 L 708.70 913.70 L 695.70 915.10 L 695.50 912.90 L 708.70 911.60 L 708.70 905.80 L 702.10 905.80 L 699.30 906.10 L 698.30 906.50 L 697.60 904.20 L 698.60 903.40 L 701.80 897.40 L 695.60 897.40 L 695.60 895.40 L 702.70 895.40 L 704.50 890.40 L 706.90 891.00 L 705.10 895.40 L 720.40 895.40 L 720.40 897.40 L 704.20 897.40 L 700.90 903.70 L 708.70 903.70 L 708.70 899.20 L 711.00 899.20 L 711.00 903.70 L 719.10 903.70 L 719.10 905.80 L 711.00 905.80 L 711.00 911.40 L 720.40 910.50 L 720.40 912.40 Z M 733.50 885.20 L 730.80 882.30 L 727.30 879.30 L 728.90 878.20 L 732.40 881.00 L 735.10 884.00 L 733.50 885.20 Z" fill="#999999" fill-rule="nonzero" group-id="6" node-id="232" stroke="none" target-height="43.5" target-width="43" target-x="694.9" target-y="876.8"/></g></svg>