<svg height="1024" node-id="1" sillyvg="true" template-height="1024" template-width="1024" version="1.1" viewBox="0 0 1024 1024" width="1024" xmlns="http://www.w3.org/2000/svg" xmlns:xlink="http://www.w3.org/1999/xlink"><defs node-id="128"><linearGradient gradientUnits="objectBoundingBox" id="SVGID_1_" node-id="4" spreadMethod="pad" x1="618.276" x2="472.1429" y1="156.9591" y2="303.0923"><stop offset="0" stop-color="#f7f7f7"/><stop offset="1" stop-color="#dedede"/></linearGradient><linearGradient gradientUnits="objectBoundingBox" id="SVGID_00000106129972293588381980000014569984323248843151_" node-id="8" spreadMethod="pad" x1="512" x2="512" y1="1014.0526" y2="676.0316"><stop offset="0" stop-color="#e6e6e6" stop-opacity="0"/><stop offset="0.6023" stop-color="#e9e9e9" stop-opacity="0.6023"/><stop offset="0.9731" stop-color="#f1f1f1" stop-opacity="0.9731"/><stop offset="1" stop-color="#f2f2f2"/></linearGradient><linearGradient gradientUnits="objectBoundingBox" id="SVGID_00000103264937329387196120000009483829832077518480_" node-id="18" spreadMethod="pad" x1="651.3784" x2="439.0405" y1="135.4754" y2="503.2553"><stop offset="0" stop-color="#e6e6e6"/><stop offset="1" stop-color="#bfbfbf"/></linearGradient><linearGradient gradientUnits="objectBoundingBox" id="SVGID_00000116234641032299814730000009899061531189919375_" node-id="22" spreadMethod="pad" x1="738.8099" x2="351.609" y1="134.1048" y2="521.3055"><stop offset="0" stop-color="#f7f7f7"/><stop offset="1" stop-color="#dedede"/></linearGradient><linearGradient gradientUnits="objectBoundingBox" id="SVGID_00000176736102847463732730000005075012458716246946_" node-id="27" spreadMethod="pad" x1="545.2095" x2="545.2095" y1="839.0394" y2="375.727"><stop offset="0" stop-color="#e6e6e6" stop-opacity="0"/><stop offset="0.1694" stop-color="#d5dee8" stop-opacity="0.1694"/><stop offset="0.4878" stop-color="#bbd2eb" stop-opacity="0.4878"/><stop offset="0.7744" stop-color="#accbed" stop-opacity="0.7744"/><stop offset="1" stop-color="#a6c8ee"/></linearGradient><linearGradient gradientUnits="objectBoundingBox" id="SVGID_00000021829009955495373100000010062535173313165734_" node-id="34" spreadMethod="pad" x1="395.8094" x2="694.6096" y1="413.2831" y2="413.2831"><stop offset="0" stop-color="#cccccc"/><stop offset="1" stop-color="#999999"/></linearGradient><linearGradient gradientUnits="objectBoundingBox" id="SVGID_00000095332213724028061120000013439104644745388935_" node-id="40" spreadMethod="pad" x1="395.8557" x2="694.5632" y1="382.6147" y2="382.6147"><stop offset="0" stop-color="#e6e6e6"/><stop offset="1" stop-color="#bfbfbf"/></linearGradient><linearGradient gradientUnits="objectBoundingBox" id="SVGID_00000065786990098063976710000001598004674313501342_" node-id="46" spreadMethod="pad" x1="519.0855" x2="566.4561" y1="252.953" y2="252.953"><stop offset="0" stop-color="#52769e"/><stop offset="1" stop-color="#9dbbde"/></linearGradient><linearGradient gradientUnits="objectBoundingBox" id="SVGID_00000143591218681235958840000014223692267540732042_" node-id="50" spreadMethod="pad" x1="521.5242" x2="568.8947" y1="253.711" y2="253.711"><stop offset="0" stop-color="#a6c8ee"/><stop offset="1" stop-color="#daebff"/></linearGradient><linearGradient gradientUnits="objectBoundingBox" id="SVGID_00000123426535155624640780000011109840626065052801_" node-id="55" spreadMethod="pad" x1="322.9356" x2="370.3062" y1="276.2593" y2="276.2593"><stop offset="0" stop-color="#52769e"/><stop offset="1" stop-color="#9dbbde"/></linearGradient><linearGradient gradientUnits="objectBoundingBox" id="SVGID_00000053530723449031222950000007971686233418993079_" node-id="59" spreadMethod="pad" x1="325.3743" x2="372.7448" y1="277.0173" y2="277.0173"><stop offset="0" stop-color="#a6c8ee"/><stop offset="1" stop-color="#daebff"/></linearGradient><linearGradient gradientUnits="objectBoundingBox" id="SVGID_00000140713866142017733840000009666703288858732183_" node-id="64" spreadMethod="pad" x1="701.3078" x2="748.6783" y1="276.2593" y2="276.2593"><stop offset="0" stop-color="#52769e"/><stop offset="1" stop-color="#9dbbde"/></linearGradient><linearGradient gradientUnits="objectBoundingBox" id="SVGID_00000020395495072821158550000016877768224350692534_" node-id="68" spreadMethod="pad" x1="703.7465" x2="751.117" y1="277.0173" y2="277.0173"><stop offset="0" stop-color="#a6c8ee"/><stop offset="1" stop-color="#daebff"/></linearGradient><linearGradient gradientUnits="objectBoundingBox" id="SVGID_00000087396750450956108830000012208725945508120473_" node-id="78" spreadMethod="pad" x1="193.2236" x2="240.5942" y1="381.4223" y2="381.4223"><stop offset="0" stop-color="#52769e"/><stop offset="1" stop-color="#9dbbde"/></linearGradient><linearGradient gradientUnits="objectBoundingBox" id="SVGID_00000160159636508191724850000011992097789429826749_" node-id="82" spreadMethod="pad" x1="195.6623" x2="243.0329" y1="382.1803" y2="382.1803"><stop offset="0" stop-color="#a6c8ee"/><stop offset="1" stop-color="#daebff"/></linearGradient><linearGradient gradientUnits="objectBoundingBox" id="SVGID_00000162326924706598338420000001460529037590203310_" node-id="92" spreadMethod="pad" x1="571.5958" x2="618.9663" y1="381.4223" y2="381.4223"><stop offset="0" stop-color="#52769e"/><stop offset="1" stop-color="#9dbbde"/></linearGradient><linearGradient gradientUnits="objectBoundingBox" id="SVGID_00000029750125720361440510000002018135163685936319_" node-id="96" spreadMethod="pad" x1="574.0345" x2="621.405" y1="382.1803" y2="382.1803"><stop offset="0" stop-color="#a6c8ee"/><stop offset="1" stop-color="#daebff"/></linearGradient><linearGradient gradientUnits="objectBoundingBox" id="SVGID_00000124141278553730447360000002302583966499894148_" node-id="101" spreadMethod="pad" x1="454.5777" x2="301.0719" y1="583.848" y2="737.3538"><stop offset="0" stop-color="#e6e6e6"/><stop offset="1" stop-color="#bfbfbf"/></linearGradient><linearGradient gradientUnits="objectBoundingBox" id="SVGID_00000169535989807726682610000004392481158464567169_" node-id="105" spreadMethod="pad" x1="446.9124" x2="293.4066" y1="589.5645" y2="743.0703"><stop offset="0" stop-color="#f7f7f7"/><stop offset="1" stop-color="#dedede"/></linearGradient><linearGradient gradientUnits="objectBoundingBox" id="SVGID_00000173857067532299798690000013102649193731621030_" node-id="110" spreadMethod="pad" x1="793.1689" x2="639.6631" y1="597.6912" y2="751.197"><stop offset="0" stop-color="#e6e6e6"/><stop offset="1" stop-color="#bfbfbf"/></linearGradient><linearGradient gradientUnits="objectBoundingBox" id="SVGID_00000047772224580762581020000009869017417300400812_" node-id="114" spreadMethod="pad" x1="785.5037" x2="631.9979" y1="603.4077" y2="756.9135"><stop offset="0" stop-color="#f7f7f7"/><stop offset="1" stop-color="#dedede"/></linearGradient><linearGradient gradientUnits="objectBoundingBox" id="SVGID_00000123406957602986307640000000110530269729484966_" node-id="119" spreadMethod="pad" x1="618.2931" x2="481.4618" y1="610.2771" y2="747.1085"><stop offset="0" stop-color="#e6e6e6"/><stop offset="1" stop-color="#bfbfbf"/></linearGradient><linearGradient gradientUnits="objectBoundingBox" id="SVGID_00000018239125411312182940000012988482998402837410_" node-id="123" spreadMethod="pad" x1="610.6279" x2="473.7965" y1="615.9937" y2="752.825"><stop offset="0" stop-color="#f7f7f7"/><stop offset="1" stop-color="#dedede"/></linearGradient><clipPath id="SVGID_00000052084023037057877660000010736887734595402632_" node-id="75"><path d="" fill="none" node-id="0" stroke="none" target-height="0" target-width="0" target-x="0" target-y="0"/></clipPath><clipPath id="SVGID_00000008853931645472718380000008962004863755704707_" node-id="89"><path d="" fill="none" node-id="0" stroke="none" target-height="0" target-width="0" target-x="0" target-y="0"/></clipPath></defs><path d="M 729.70 282.70 L 727.50 288.50 L 724.90 294.10 L 722.00 299.30 L 718.60 304.30 L 714.90 309.00 L 710.90 313.40 L 706.50 317.60 L 701.90 321.50 L 697.00 325.00 L 691.70 328.40 L 684.90 332.00 L 677.70 335.10 L 670.20 337.80 L 662.20 339.90 L 654.20 341.50 L 646.00 342.50 L 637.60 342.90 L 628.80 342.80 L 620.20 342.10 L 611.50 340.70 L 602.70 338.80 L 593.70 336.10 L 585.00 332.90 L 576.70 329.10 L 568.90 325.00 L 561.60 320.40 L 554.60 315.20 L 548.10 309.80 L 542.10 304.10 L 536.60 298.00 L 531.60 291.50 L 527.10 284.90 L 523.30 278.10 L 520.00 271.10 L 517.80 265.30 L 516.00 259.40 L 514.60 253.60 L 513.60 247.60 L 513.10 241.60 L 512.90 235.60 L 513.30 229.70 L 514.10 223.70 L 515.30 217.70 L 517.00 211.70 L 519.20 205.90 L 521.80 200.40 L 524.80 195.10 L 528.10 190.20 L 531.80 185.40 L 535.90 181.00 L 540.20 176.80 L 544.90 173.00 L 549.80 169.40 L 555.10 166.10 L 561.90 162.40 L 569.10 159.30 L 576.60 156.70 L 584.50 154.50 L 592.50 152.90 L 600.70 151.90 L 609.20 151.50 L 617.90 151.60 L 626.50 152.30 L 635.30 153.70 L 644.10 155.70 L 653.10 158.30 L 661.80 161.60 L 670.00 165.30 L 677.80 169.50 L 685.20 174.10 L 692.20 179.20 L 698.70 184.60 L 704.70 190.40 L 710.10 196.40 L 715.20 202.90 L 719.60 209.50 L 723.50 216.30 L 726.70 223.30 L 729.00 229.20 L 730.80 235.00 L 732.10 240.90 L 733.10 246.80 L 733.70 252.80 L 733.80 258.80 L 733.50 264.80 L 732.70 270.70 L 731.50 276.70 L 729.70 282.70 Z" fill="url(#SVGID_1_)" fill-rule="nonzero" node-id="281" stroke="none" target-height="191.4" target-width="220.89996" target-x="512.9" target-y="151.5"/><path d="M 994.00 845.00 L 993.80 850.50 L 993.00 856.00 L 991.70 861.50 L 989.90 867.00 L 987.60 872.60 L 984.70 878.20 L 980.80 884.30 L 976.20 890.60 L 970.80 896.90 L 964.50 903.30 L 957.30 909.70 L 950.20 915.50 L 942.20 921.30 L 933.40 927.10 L 923.70 932.90 L 913.00 938.80 L 891.50 949.20 L 879.50 954.40 L 852.80 964.50 L 825.10 973.50 L 810.40 977.80 L 795.00 981.90 L 774.40 986.80 L 753.00 991.40 L 730.60 995.70 L 708.20 999.40 L 685.00 1002.80 L 661.20 1005.80 L 637.20 1008.20 L 612.80 1010.30 L 587.90 1011.90 L 562.90 1013.10 L 537.60 1013.80 L 512.00 1014.10 L 486.40 1013.80 L 461.10 1013.10 L 436.10 1011.90 L 411.20 1010.30 L 386.80 1008.20 L 362.80 1005.80 L 339.00 1002.80 L 315.80 999.40 L 293.40 995.70 L 271.00 991.40 L 249.60 986.80 L 229.00 981.90 L 213.60 977.80 L 198.90 973.50 L 171.20 964.50 L 144.50 954.40 L 132.50 949.20 L 111.00 938.80 L 100.30 932.90 L 90.60 927.10 L 81.80 921.30 L 73.80 915.50 L 66.70 909.70 L 59.50 903.30 L 53.20 896.90 L 47.80 890.60 L 43.20 884.30 L 39.30 878.20 L 36.40 872.60 L 34.10 867.00 L 32.30 861.50 L 31.00 856.00 L 30.20 850.50 L 30.00 845.00 L 30.20 839.50 L 31.00 834.00 L 32.30 828.60 L 34.10 823.10 L 36.40 817.50 L 39.30 811.90 L 43.20 805.70 L 47.80 799.50 L 53.20 793.20 L 59.50 786.80 L 66.70 780.40 L 73.80 774.60 L 81.80 768.80 L 90.60 763.00 L 100.30 757.10 L 111.00 751.30 L 132.50 740.80 L 144.50 735.70 L 171.20 725.50 L 198.90 716.60 L 213.60 712.30 L 229.00 708.20 L 249.60 703.30 L 271.00 698.70 L 293.40 694.40 L 315.80 690.70 L 339.00 687.30 L 362.80 684.30 L 386.80 681.80 L 411.20 679.80 L 436.10 678.10 L 461.10 677.00 L 486.40 676.30 L 512.00 676.00 L 537.60 676.30 L 562.90 677.00 L 587.90 678.10 L 612.80 679.80 L 637.20 681.80 L 661.20 684.30 L 685.00 687.30 L 708.20 690.70 L 730.60 694.40 L 753.00 698.70 L 774.40 703.30 L 795.00 708.20 L 810.40 712.30 L 825.10 716.60 L 852.80 725.50 L 879.50 735.70 L 891.50 740.80 L 913.00 751.30 L 923.70 757.10 L 933.40 763.00 L 942.20 768.80 L 950.20 774.60 L 957.30 780.40 L 964.50 786.80 L 970.80 793.20 L 976.20 799.50 L 980.80 805.70 L 984.70 811.90 L 987.60 817.50 L 989.90 823.10 L 991.70 828.60 L 993.00 834.00 L 993.80 839.50 L 994.00 845.00 Z" fill="url(#SVGID_00000106129972293588381980000014569984323248843151_)" fill-rule="nonzero" node-id="283" stroke="none" target-height="338.09998" target-width="964" target-x="30" target-y="676"/><g node-id="382"><path d="M 497.50 906.80 L 492.60 906.80 L 492.60 916.80 L 489.90 916.80 L 489.90 906.80 L 474.40 906.80 L 474.40 905.00 L 489.90 881.80 L 492.60 881.80 L 492.60 904.50 L 497.50 904.50 L 497.50 906.80 Z M 489.90 904.50 L 490.10 885.80 L 489.90 885.80 L 487.10 890.60 L 477.60 904.50 L 489.90 904.50 Z" fill="#999999" fill-rule="nonzero" group-id="1" node-id="287" stroke="none" target-height="35" target-width="23.100006" target-x="474.4" target-y="881.8"/><path d="M 501.70 899.20 L 501.90 894.50 L 502.50 890.80 L 503.40 887.90 L 504.50 885.60 L 506.00 883.60 L 507.80 882.30 L 509.70 881.50 L 512.00 881.20 L 514.30 881.50 L 516.30 882.30 L 518.00 883.60 L 519.50 885.60 L 520.60 887.90 L 521.50 890.80 L 522.10 894.50 L 522.30 899.20 L 522.10 904.00 L 521.50 907.70 L 520.60 910.70 L 519.50 912.90 L 518.00 915.00 L 516.20 916.30 L 514.30 917.20 L 512.00 917.40 L 509.70 917.20 L 507.80 916.30 L 506.00 915.00 L 504.50 912.90 L 503.40 910.70 L 502.50 907.70 L 501.90 904.00 L 501.70 899.20 Z M 519.50 899.20 L 518.90 891.90 L 517.50 887.50 L 516.30 885.60 L 515.00 884.50 L 513.60 883.80 L 512.00 883.50 L 510.40 883.80 L 509.00 884.50 L 507.70 885.60 L 506.50 887.50 L 505.10 891.90 L 504.50 899.20 L 505.10 906.60 L 506.50 911.10 L 507.70 913.00 L 509.00 914.20 L 510.40 914.80 L 512.00 915.10 L 513.60 914.80 L 515.00 914.20 L 516.30 913.00 L 517.50 911.10 L 518.90 906.60 L 519.50 899.20 Z" fill="#999999" fill-rule="nonzero" group-id="1" node-id="289" stroke="none" target-height="36.200012" target-width="20.599976" target-x="501.7" target-y="881.2"/><path d="M 548.90 906.80 L 543.90 906.80 L 543.90 916.80 L 541.20 916.80 L 541.20 906.80 L 525.70 906.80 L 525.70 905.00 L 541.20 881.80 L 543.90 881.80 L 543.90 904.50 L 548.90 904.50 L 548.90 906.80 Z M 541.20 904.50 L 541.20 891.60 L 541.50 885.80 L 529.00 904.50 L 541.20 904.50 Z" fill="#999999" fill-rule="nonzero" group-id="1" node-id="291" stroke="none" target-height="35" target-width="23.200012" target-x="525.7" target-y="881.8"/></g><path d="M 943.10 448.10 L 941.40 452.50 L 939.10 456.70 L 936.40 460.80 L 933.20 464.60 L 929.40 468.30 L 925.00 471.90 L 919.60 475.50 L 913.60 478.90 L 906.80 482.10 L 899.10 485.10 L 890.60 487.80 L 882.40 489.90 L 863.80 493.40 L 842.30 495.80 L 828.70 496.50 L 814.30 496.80 L 798.80 496.60 L 782.30 495.90 L 766.20 494.80 L 749.30 493.10 L 731.60 490.90 L 713.10 488.20 L 694.90 485.10 L 676.20 481.40 L 656.80 477.30 L 636.90 472.50 L 617.30 467.50 L 597.20 461.90 L 576.80 455.70 L 556.10 449.00 L 535.40 441.90 L 515.40 434.50 L 496.00 427.00 L 477.30 419.30 L 458.50 411.10 L 440.50 402.80 L 423.40 394.50 L 407.00 386.00 L 390.50 377.10 L 375.00 368.20 L 360.50 359.40 L 347.00 350.60 L 333.30 341.30 L 320.80 332.20 L 309.50 323.30 L 299.10 314.50 L 283.30 299.70 L 270.60 285.70 L 265.30 279.10 L 260.10 271.80 L 255.70 264.80 L 252.20 258.20 L 249.40 251.80 L 247.30 245.70 L 245.90 240.30 L 245.10 235.00 L 244.90 230.00 L 245.10 225.10 L 245.80 220.40 L 247.10 215.80 L 248.80 211.40 L 251.10 207.20 L 253.80 203.10 L 257.10 199.30 L 260.80 195.60 L 265.20 192.00 L 270.60 188.40 L 276.60 185.00 L 283.40 181.80 L 291.10 178.90 L 299.60 176.10 L 316.70 172.10 L 326.40 170.50 L 348.00 168.10 L 361.50 167.40 L 375.90 167.10 L 391.40 167.30 L 407.90 168.00 L 424.00 169.10 L 440.90 170.80 L 458.60 173.00 L 477.10 175.70 L 495.30 178.80 L 514.00 182.50 L 533.40 186.60 L 553.30 191.40 L 573.00 196.40 L 593.00 202.10 L 613.40 208.20 L 634.20 214.90 L 654.80 222.00 L 674.80 229.40 L 694.20 236.90 L 712.90 244.60 L 731.70 252.80 L 749.70 261.10 L 766.90 269.50 L 783.20 277.90 L 799.70 286.80 L 815.20 295.70 L 829.70 304.50 L 843.30 313.30 L 856.90 322.60 L 869.40 331.70 L 880.80 340.70 L 891.10 349.40 L 906.90 364.20 L 919.60 378.20 L 924.90 384.80 L 930.10 392.10 L 934.50 399.10 L 938.00 405.70 L 940.80 412.10 L 942.90 418.20 L 944.30 423.70 L 945.10 428.90 L 945.40 433.90 L 945.10 438.80 L 944.40 443.50 L 943.10 448.10 Z" fill="url(#SVGID_00000103264937329387196120000009483829832077518480_)" fill-rule="nonzero" node-id="294" stroke="none" target-height="329.69998" target-width="700.5" target-x="244.9" target-y="167.1"/><path d="M 940.50 456.00 L 938.70 460.40 L 936.50 464.60 L 933.80 468.70 L 930.50 472.50 L 926.70 476.20 L 922.40 479.80 L 917.00 483.40 L 910.90 486.80 L 904.10 490.00 L 896.50 493.00 L 887.90 495.70 L 879.70 497.80 L 861.20 501.30 L 839.60 503.70 L 826.10 504.50 L 811.60 504.80 L 796.20 504.60 L 779.70 503.80 L 763.50 502.70 L 746.70 501.00 L 729.00 498.80 L 710.40 496.10 L 692.30 493.00 L 673.50 489.40 L 654.20 485.20 L 634.20 480.40 L 614.60 475.40 L 594.60 469.80 L 574.20 463.60 L 553.40 456.90 L 532.80 449.80 L 512.70 442.50 L 493.40 434.90 L 474.60 427.20 L 455.80 419.00 L 437.90 410.70 L 420.70 402.40 L 404.30 393.90 L 387.90 385.00 L 372.40 376.10 L 357.90 367.30 L 344.30 358.60 L 330.70 349.20 L 318.20 340.10 L 306.80 331.20 L 296.50 322.40 L 280.60 307.60 L 267.90 293.60 L 262.60 287.00 L 257.40 279.70 L 253.10 272.70 L 249.60 266.10 L 246.80 259.70 L 244.70 253.60 L 243.30 248.20 L 242.50 242.90 L 242.20 237.90 L 242.50 233.00 L 243.20 228.30 L 244.40 223.70 L 246.20 219.30 L 248.40 215.10 L 251.20 211.10 L 254.40 207.20 L 258.20 203.50 L 262.60 200.00 L 267.90 196.30 L 274.00 192.90 L 280.80 189.70 L 288.40 186.80 L 297.00 184.10 L 314.10 180.00 L 323.70 178.40 L 345.30 176.00 L 358.80 175.30 L 373.30 175.00 L 388.80 175.20 L 405.30 175.90 L 421.40 177.10 L 438.30 178.70 L 456.00 180.90 L 474.50 183.60 L 492.70 186.70 L 511.40 190.40 L 530.70 194.50 L 550.70 199.30 L 570.30 204.40 L 590.30 210.00 L 610.70 216.10 L 631.50 222.80 L 652.20 229.90 L 672.20 237.30 L 691.50 244.80 L 710.30 252.50 L 729.10 260.70 L 747.10 269.00 L 764.20 277.40 L 780.60 285.80 L 797.10 294.70 L 812.50 303.60 L 827.00 312.40 L 840.60 321.20 L 854.30 330.50 L 866.70 339.60 L 878.10 348.60 L 888.50 357.30 L 904.30 372.20 L 917.00 386.10 L 922.30 392.70 L 927.50 400.00 L 931.80 407.00 L 935.40 413.60 L 938.10 420.00 L 940.30 426.10 L 941.60 431.60 L 942.40 436.80 L 942.70 441.80 L 942.50 446.70 L 941.70 451.40 L 940.50 456.00 Z" fill="url(#SVGID_00000116234641032299814730000009899061531189919375_)" fill-rule="nonzero" node-id="296" stroke="none" target-height="329.8" target-width="700.5" target-x="242.2" target-y="175"/><g node-id="383"><path d="M 627.00 236.40 L 647.20 243.30 L 685.70 257.80 L 722.50 273.20 L 756.90 289.30 L 789.10 306.00 L 804.20 314.50 L 818.50 323.00 L 831.80 331.40 L 845.20 340.30 L 857.50 349.00 L 868.70 357.50 L 878.80 365.80 L 889.00 374.80 L 897.90 383.40 L 905.60 391.60 L 912.20 399.50 L 917.40 406.40 L 921.70 413.00 L 925.20 419.30 L 928.00 425.30 L 930.20 431.00 L 931.60 436.20 L 932.40 441.10 L 932.80 445.80 L 932.60 450.30 L 931.90 454.70 L 930.80 459.00 L 929.10 463.10 L 927.00 467.00 L 924.40 470.80 L 921.30 474.30 L 917.70 477.80 L 913.50 481.00 L 908.30 484.30 L 902.50 487.50 L 895.90 490.40 L 888.50 493.00 L 880.20 495.50 L 870.20 497.80 L 859.00 499.70 L 846.80 501.30 L 833.30 502.30 L 820.20 502.80 L 806.10 502.90 L 791.10 502.50 L 775.00 501.60 L 759.30 500.30 L 742.80 498.50 L 725.60 496.20 L 707.50 493.40 L 671.50 486.60 L 633.20 477.70 L 594.50 467.20 L 574.50 461.20 L 554.20 454.60 L 514.50 440.50 L 477.20 425.70 L 441.20 409.70 L 408.30 393.60 L 392.20 385.00 L 377.00 376.40 L 362.80 368.00 L 349.50 359.60 L 336.10 350.70 L 323.80 341.90 L 312.60 333.40 L 302.40 325.10 L 292.30 316.20 L 283.40 307.60 L 275.70 299.40 L 269.00 291.50 L 263.80 284.50 L 259.50 278.00 L 256.00 271.70 L 253.20 265.70 L 251.10 260.00 L 249.70 254.80 L 248.80 249.90 L 248.50 245.20 L 248.70 240.60 L 249.30 236.20 L 250.50 232.00 L 252.10 227.80 L 254.20 223.90 L 256.80 220.20 L 259.90 216.60 L 263.60 213.20 L 267.80 209.90 L 272.90 206.60 L 278.80 203.50 L 285.30 200.60 L 292.70 197.90 L 301.00 195.50 L 311.10 193.20 L 322.20 191.30 L 334.50 189.70 L 348.00 188.70 L 361.10 188.10 L 375.20 188.10 L 390.20 188.50 L 406.30 189.40 L 422.00 190.70 L 438.40 192.40 L 455.70 194.70 L 491.40 200.70 L 528.60 208.50 L 567.20 218.30 L 606.70 229.80 L 627.00 236.40 Z" fill="#ffffff" fill-rule="nonzero" group-id="2" node-id="300" stroke="none" target-height="314.8" target-width="684.3" target-x="248.5" target-y="188.1"/></g><g node-id="384"><path d="M 770.80 938.40 L 90.40 711.40 L 435.60 338.10 L 719.00 432.70 Z" fill="url(#SVGID_00000176736102847463732730000005075012458716246946_)" fill-opacity="0.18" fill-rule="nonzero" group-id="3" node-id="305" stroke="none" target-height="600.30005" target-width="680.39996" target-x="90.4" target-y="338.1"/></g><path d="M 559.60 438.40 L 544.20 433.00 L 529.70 427.30 L 516.20 421.40 L 502.80 414.90 L 490.70 408.50 L 479.80 402.10 L 464.50 391.80 L 452.50 382.10 L 447.00 376.80 L 442.50 371.90 L 439.00 367.20 L 436.30 362.90 L 434.40 359.00 L 433.20 355.40 L 432.60 352.00 L 432.60 348.80 L 433.00 345.80 L 431.80 350.10 L 431.40 353.20 L 431.40 356.50 L 431.90 359.80 L 432.80 363.30 L 434.30 367.50 L 436.40 371.80 L 439.20 376.30 L 446.40 385.50 L 455.60 394.70 L 461.20 399.60 L 468.80 405.50 L 477.40 411.60 L 487.00 417.70 L 496.90 423.40 L 507.50 429.00 L 519.00 434.50 L 530.70 439.50 L 543.00 444.40 L 556.10 449.00 L 569.20 453.10 L 582.00 456.70 L 594.40 459.60 L 606.90 462.10 L 618.80 464.00 L 630.10 465.40 L 641.40 466.30 L 651.90 466.60 L 661.60 466.40 L 669.00 465.90 L 681.80 464.10 L 687.40 462.80 L 693.10 461.10 L 698.10 459.10 L 702.40 456.90 L 706.10 454.50 L 708.90 452.30 L 711.30 449.80 L 713.20 447.30 L 714.80 444.60 L 716.40 440.40 L 714.90 443.10 L 713.00 445.60 L 710.50 447.90 L 707.40 450.10 L 703.50 452.00 L 698.70 453.90 L 693.10 455.50 L 686.60 456.80 L 679.00 457.70 L 663.60 458.20 L 645.10 457.30 L 632.60 455.80 L 619.00 453.70 L 604.50 450.80 L 590.10 447.40 L 575.20 443.30 L 559.60 438.40 Z" fill="url(#SVGID_00000021829009955495373100000010062535173313165734_)" fill-rule="nonzero" node-id="308" stroke="none" target-height="120.80002" target-width="285.00003" target-x="431.4" target-y="345.8"/><path d="M 716.80 439.20 L 717.50 436.30 L 717.60 433.20 L 717.30 430.00 L 716.30 426.50 L 714.80 422.80 L 716.10 426.60 L 716.80 430.30 L 717.10 433.80 L 717.00 437.10 L 716.40 440.40 L 716.80 439.20 Z" fill="#b2b2b2" fill-rule="nonzero" node-id="310" stroke="none" target-height="17.600006" target-width="2.7999878" target-x="714.8" target-y="422.8"/><path d="M 433.40 344.70 L 433.00 345.80 L 434.50 342.90 L 436.40 340.10 L 438.70 337.50 L 441.50 335.00 L 444.90 332.70 L 441.40 334.80 L 438.50 337.00 L 436.30 339.40 L 434.60 341.90 L 433.40 344.70 Z" fill="#b2b2b2" fill-rule="nonzero" node-id="312" stroke="none" target-height="13.099976" target-width="11.899994" target-x="433" target-y="332.7"/><path d="M 559.60 438.40 L 575.20 443.30 L 590.10 447.40 L 604.50 450.80 L 619.10 453.70 L 632.60 455.80 L 645.10 457.30 L 663.60 458.20 L 679.00 457.70 L 686.60 456.80 L 693.10 455.50 L 698.70 453.90 L 703.50 452.00 L 707.40 450.10 L 710.50 447.90 L 713.00 445.60 L 714.90 443.10 L 716.40 440.40 L 717.00 437.10 L 717.10 433.80 L 716.80 430.30 L 716.10 426.60 L 714.80 422.80 L 712.80 419.20 L 707.20 411.50 L 703.30 407.20 L 697.90 402.10 L 691.50 396.60 L 684.00 390.90 L 676.30 385.60 L 667.70 380.20 L 648.40 369.50 L 626.60 359.20 L 603.20 349.90 L 577.90 341.40 L 565.50 337.90 L 541.50 332.20 L 519.10 328.30 L 508.10 326.90 L 498.00 326.10 L 488.60 325.70 L 479.20 325.70 L 470.80 326.30 L 463.40 327.20 L 457.80 328.20 L 448.60 331.00 L 444.90 332.70 L 441.50 335.00 L 438.70 337.50 L 436.40 340.10 L 434.50 342.90 L 433.00 345.80 L 432.60 348.80 L 432.60 352.00 L 433.20 355.40 L 434.40 359.00 L 436.30 362.90 L 439.00 367.20 L 442.50 371.90 L 447.00 376.80 L 452.50 382.10 L 464.50 391.80 L 479.80 402.10 L 490.70 408.50 L 502.80 414.90 L 516.20 421.40 L 529.70 427.30 L 544.20 433.00 L 559.60 438.40 Z" fill="url(#SVGID_00000095332213724028061120000013439104644745388935_)" fill-rule="nonzero" node-id="314" stroke="none" target-height="132.5" target-width="284.49997" target-x="432.6" target-y="325.7"/><g node-id="385"><path d="M 716.40 440.40 L 717.00 437.10 L 717.10 433.80 L 716.80 430.30 L 716.10 426.60 L 714.80 422.80 L 712.80 419.20 L 707.20 411.50 L 703.30 407.20 L 697.90 402.10 L 691.50 396.60 L 684.00 390.90 L 676.30 385.60 L 667.70 380.20 L 658.10 374.70 L 637.90 364.30 L 615.20 354.50 L 590.60 345.50 L 565.50 337.90 L 553.50 334.90 L 530.00 330.00 L 508.10 326.90 L 498.00 326.10 L 488.60 325.70 L 479.20 325.70 L 470.80 326.30 L 463.40 327.20 L 457.80 328.20 L 452.80 329.50 L 444.90 332.70 L 441.50 335.00 L 438.70 337.50 L 436.40 340.10 L 434.50 342.90 L 432.50 347.10 L 431.80 350.10 L 431.40 353.20 L 431.40 356.50 L 431.90 359.80 L 432.80 363.30 L 434.30 367.50 L 436.40 371.80 L 439.20 376.30 L 446.40 385.50 L 455.60 394.70 L 461.20 399.60 L 468.80 405.50 L 477.40 411.60 L 487.00 417.70 L 496.90 423.40 L 507.50 429.00 L 519.00 434.50 L 530.70 439.50 L 543.00 444.40 L 556.10 449.00 L 569.20 453.10 L 582.00 456.70 L 594.40 459.60 L 606.90 462.10 L 618.80 464.00 L 630.10 465.40 L 641.40 466.30 L 651.90 466.60 L 661.60 466.40 L 669.00 465.90 L 681.80 464.10 L 687.40 462.80 L 693.10 461.10 L 698.10 459.10 L 702.40 456.90 L 706.10 454.50 L 708.90 452.30 L 711.30 449.80 L 713.20 447.30 L 714.80 444.60 L 716.40 440.40 Z" fill="#a6c8ee" fill-opacity="0.1" fill-rule="nonzero" group-id="4" node-id="318" stroke="none" target-height="140.9" target-width="285.69998" target-x="431.4" target-y="325.7"/></g><g node-id="386"><path d="M 637.50 268.20 L 637.30 271.40 L 636.70 274.50 L 635.60 277.40 L 634.30 280.20 L 630.60 284.90 L 625.80 288.60 L 623.00 290.00 L 620.10 291.00 L 617.10 291.60 L 613.80 291.90 L 610.60 291.60 L 607.50 291.00 L 604.60 290.00 L 601.80 288.60 L 597.10 284.90 L 593.40 280.20 L 592.00 277.40 L 591.00 274.50 L 590.30 271.40 L 590.10 268.20 L 590.30 264.90 L 591.00 261.90 L 592.00 259.00 L 593.40 256.20 L 597.10 251.40 L 601.80 247.70 L 604.60 246.40 L 607.50 245.30 L 610.60 244.70 L 613.80 244.50 L 617.10 244.70 L 620.10 245.30 L 623.00 246.40 L 625.80 247.70 L 630.60 251.40 L 634.30 256.20 L 635.60 259.00 L 636.70 261.90 L 637.30 264.90 L 637.50 268.20 Z" fill="url(#SVGID_00000065786990098063976710000001598004674313501342_)" fill-rule="nonzero" group-id="5" node-id="323" stroke="none" target-height="47.399994" target-width="47.400024" target-x="590.1" target-y="244.5"/><path d="M 639.60 269.70 L 639.40 272.90 L 638.70 276.00 L 637.70 278.90 L 636.30 281.70 L 632.60 286.40 L 627.90 290.10 L 625.10 291.50 L 622.20 292.50 L 619.10 293.10 L 615.90 293.40 L 612.60 293.10 L 609.60 292.50 L 606.70 291.50 L 601.40 288.40 L 597.10 284.20 L 595.40 281.70 L 594.10 278.90 L 593.00 276.00 L 592.40 272.90 L 592.20 269.70 L 592.40 266.40 L 593.00 263.40 L 594.10 260.50 L 597.10 255.20 L 601.40 250.90 L 606.70 247.90 L 609.60 246.80 L 612.60 246.20 L 615.90 246.00 L 619.10 246.20 L 622.20 246.80 L 625.10 247.90 L 627.90 249.20 L 632.60 252.90 L 636.30 257.70 L 637.70 260.50 L 638.70 263.40 L 639.40 266.40 L 639.60 269.70 Z" fill="url(#SVGID_00000143591218681235958840000014223692267540732042_)" fill-rule="nonzero" group-id="5" node-id="325" stroke="none" target-height="47.399994" target-width="47.399963" target-x="592.2" target-y="246"/></g><g node-id="387"><path d="M 444.10 228.20 L 443.80 231.50 L 443.20 234.50 L 442.20 237.40 L 440.80 240.20 L 437.10 245.00 L 432.30 248.60 L 429.60 250.00 L 426.70 251.00 L 423.60 251.70 L 420.40 251.90 L 417.10 251.70 L 414.10 251.00 L 411.10 250.00 L 405.90 247.00 L 401.60 242.70 L 399.90 240.20 L 398.50 237.40 L 397.50 234.50 L 396.90 231.50 L 396.70 228.20 L 396.90 224.90 L 397.50 221.90 L 398.50 219.00 L 401.60 213.70 L 405.90 209.40 L 411.10 206.40 L 414.10 205.40 L 417.10 204.70 L 420.40 204.50 L 423.60 204.70 L 426.70 205.40 L 429.60 206.40 L 432.30 207.80 L 437.10 211.40 L 440.80 216.20 L 442.20 219.00 L 443.20 221.90 L 443.80 224.90 L 444.10 228.20 Z" fill="url(#SVGID_00000123426535155624640780000011109840626065052801_)" fill-rule="nonzero" group-id="6" node-id="330" stroke="none" target-height="47.399994" target-width="47.399994" target-x="396.7" target-y="204.5"/><path d="M 446.10 229.70 L 445.90 232.90 L 445.30 236.00 L 444.30 238.90 L 442.90 241.70 L 439.20 246.40 L 434.40 250.10 L 431.70 251.50 L 428.80 252.50 L 425.70 253.20 L 422.50 253.40 L 419.20 253.20 L 416.10 252.50 L 413.20 251.50 L 410.50 250.10 L 405.70 246.40 L 402.00 241.70 L 400.60 238.90 L 399.60 236.00 L 399.00 232.90 L 398.80 229.70 L 399.00 226.40 L 399.60 223.40 L 400.60 220.50 L 402.00 217.70 L 405.70 212.90 L 410.50 209.20 L 413.20 207.90 L 416.10 206.80 L 419.20 206.20 L 422.50 206.00 L 425.70 206.20 L 428.80 206.80 L 431.70 207.90 L 434.40 209.20 L 439.20 212.90 L 442.90 217.70 L 444.30 220.50 L 445.30 223.40 L 445.90 226.40 L 446.10 229.70 Z" fill="url(#SVGID_00000053530723449031222950000007971686233418993079_)" fill-rule="nonzero" group-id="6" node-id="332" stroke="none" target-height="47.399994" target-width="47.30002" target-x="398.8" target-y="206"/></g><g node-id="388"><path d="M 822.90 354.60 L 822.70 357.90 L 822.10 360.90 L 821.00 363.80 L 819.70 366.60 L 816.00 371.40 L 811.20 375.10 L 808.40 376.40 L 805.50 377.50 L 802.50 378.10 L 799.20 378.30 L 796.00 378.10 L 792.90 377.50 L 790.00 376.40 L 784.70 373.40 L 780.50 369.10 L 778.80 366.60 L 777.40 363.80 L 776.40 360.90 L 775.70 357.90 L 775.50 354.60 L 775.70 351.40 L 776.40 348.30 L 777.40 345.40 L 780.50 340.10 L 784.70 335.90 L 790.00 332.80 L 792.90 331.80 L 796.00 331.20 L 799.20 330.90 L 802.50 331.20 L 805.50 331.80 L 808.40 332.80 L 811.20 334.20 L 816.00 337.90 L 819.70 342.60 L 821.00 345.40 L 822.10 348.30 L 822.70 351.40 L 822.90 354.60 Z" fill="url(#SVGID_00000140713866142017733840000009666703288858732183_)" fill-rule="nonzero" group-id="7" node-id="337" stroke="none" target-height="47.399994" target-width="47.400024" target-x="775.5" target-y="330.9"/><path d="M 820.40 354.60 L 820.10 357.80 L 819.50 360.90 L 818.50 363.80 L 817.10 366.50 L 813.40 371.30 L 808.60 375.00 L 805.90 376.40 L 803.00 377.40 L 799.90 378.00 L 796.70 378.30 L 793.40 378.00 L 790.30 377.40 L 787.40 376.40 L 782.20 373.30 L 777.90 369.00 L 776.20 366.50 L 773.80 360.90 L 773.20 357.80 L 773.00 354.60 L 773.20 351.30 L 773.80 348.30 L 774.80 345.30 L 777.90 340.10 L 782.20 335.80 L 787.40 332.70 L 790.30 331.70 L 793.40 331.10 L 796.70 330.90 L 799.90 331.10 L 803.00 331.70 L 805.90 332.70 L 808.60 334.10 L 813.40 337.80 L 817.10 342.60 L 818.50 345.30 L 819.50 348.30 L 820.10 351.30 L 820.40 354.60 Z" fill="url(#SVGID_00000020395495072821158550000016877768224350692534_)" fill-rule="nonzero" group-id="7" node-id="339" stroke="none" target-height="47.399994" target-width="47.400024" target-x="773" target-y="330.9"/></g><g node-id="389"><g clip-path="url(#SVGID_00000052084023037057877660000010736887734595402632_)" group-id="8" id="sillyvg_g_5" node-id="344"><path d="M 287.70 286.90 L 287.50 290.10 L 286.90 293.20 L 285.90 296.10 L 284.50 298.90 L 280.80 303.60 L 276.00 307.30 L 273.30 308.70 L 270.40 309.70 L 267.30 310.40 L 264.00 310.60 L 260.80 310.40 L 257.70 309.70 L 254.80 308.70 L 252.10 307.30 L 247.30 303.60 L 243.60 298.90 L 242.20 296.10 L 241.20 293.20 L 240.60 290.10 L 240.40 286.90 L 240.60 283.60 L 241.20 280.60 L 242.20 277.70 L 243.60 274.90 L 247.30 270.10 L 252.10 266.40 L 254.80 265.10 L 257.70 264.00 L 260.80 263.40 L 264.00 263.20 L 267.30 263.40 L 270.40 264.00 L 273.30 265.10 L 276.00 266.40 L 280.80 270.10 L 284.50 274.90 L 285.90 277.70 L 286.90 280.60 L 287.50 283.60 L 287.70 286.90 Z" fill="url(#SVGID_00000087396750450956108830000012208725945508120473_)" fill-rule="nonzero" group-id="8,13" node-id="346" stroke="none" target-height="47.399994" target-width="47.30002" target-x="240.4" target-y="263.2"/><path d="M 289.80 288.40 L 289.60 291.60 L 289.00 294.70 L 287.90 297.60 L 286.60 300.40 L 282.90 305.10 L 278.10 308.80 L 275.30 310.20 L 272.40 311.20 L 269.40 311.90 L 266.10 312.10 L 262.90 311.90 L 259.80 311.20 L 256.90 310.20 L 251.60 307.10 L 247.40 302.90 L 245.70 300.40 L 244.30 297.60 L 243.30 294.70 L 242.70 291.60 L 242.40 288.40 L 242.70 285.10 L 243.30 282.10 L 244.30 279.20 L 247.40 273.90 L 251.60 269.60 L 256.90 266.60 L 259.80 265.50 L 262.90 264.90 L 266.10 264.70 L 269.40 264.90 L 272.40 265.50 L 275.30 266.60 L 278.10 267.90 L 282.90 271.60 L 286.60 276.40 L 287.90 279.20 L 289.00 282.10 L 289.60 285.10 L 289.80 288.40 Z" fill="url(#SVGID_00000160159636508191724850000011992097789429826749_)" fill-rule="nonzero" group-id="8,13" node-id="348" stroke="none" target-height="47.399994" target-width="47.399994" target-x="242.4" target-y="264.7"/></g></g><g node-id="390"><g clip-path="url(#SVGID_00000008853931645472718380000008962004863755704707_)" group-id="9" id="sillyvg_g_7" node-id="354"><path d="M 912.70 495.40 L 912.40 498.70 L 911.80 501.80 L 910.80 504.70 L 909.40 507.40 L 905.70 512.20 L 900.90 515.90 L 898.20 517.30 L 895.30 518.30 L 892.20 518.90 L 889.00 519.10 L 885.70 518.90 L 882.60 518.30 L 879.70 517.30 L 877.00 515.90 L 872.20 512.20 L 868.50 507.40 L 867.10 504.70 L 866.10 501.80 L 865.50 498.70 L 865.30 495.40 L 865.50 492.20 L 866.10 489.10 L 867.10 486.20 L 868.50 483.50 L 872.20 478.70 L 877.00 475.00 L 879.70 473.60 L 882.60 472.60 L 885.70 472.00 L 889.00 471.80 L 892.20 472.00 L 895.30 472.60 L 898.20 473.60 L 900.90 475.00 L 905.70 478.70 L 909.40 483.50 L 910.80 486.20 L 911.80 489.10 L 912.40 492.20 L 912.70 495.40 Z" fill="url(#SVGID_00000162326924706598338420000001460529037590203310_)" fill-rule="nonzero" group-id="9,14" node-id="356" stroke="none" target-height="47.299988" target-width="47.400024" target-x="865.3" target-y="471.8"/><path d="M 910.10 495.40 L 909.90 498.60 L 909.30 501.70 L 908.20 504.60 L 906.90 507.40 L 903.20 512.10 L 898.40 515.80 L 895.60 517.20 L 892.70 518.20 L 889.70 518.90 L 886.40 519.10 L 883.20 518.90 L 880.10 518.20 L 877.20 517.20 L 874.40 515.80 L 869.70 512.10 L 866.00 507.40 L 864.60 504.60 L 863.60 501.70 L 862.90 498.60 L 862.70 495.40 L 862.90 492.10 L 863.60 489.10 L 864.60 486.20 L 866.00 483.40 L 869.70 478.60 L 874.40 474.90 L 877.20 473.60 L 880.10 472.50 L 883.20 471.90 L 886.40 471.70 L 889.70 471.90 L 892.70 472.50 L 895.60 473.60 L 898.40 474.90 L 903.20 478.60 L 906.90 483.40 L 908.20 486.20 L 909.30 489.10 L 909.90 492.10 L 910.10 495.40 Z" fill="url(#SVGID_00000029750125720361440510000002018135163685936319_)" fill-rule="nonzero" group-id="9,14" node-id="358" stroke="none" target-height="47.399963" target-width="47.399963" target-x="862.7" target-y="471.7"/></g></g><g node-id="391"><path d="M 375.90 615.20 L 373.60 614.70 L 371.70 613.70 L 370.20 612.20 L 369.00 610.40 L 368.40 608.30 L 368.30 606.00 L 380.20 484.00 L 338.40 480.00 L 334.50 480.30 L 331.00 481.90 L 329.50 483.10 L 233.50 616.90 L 232.00 619.40 L 230.00 624.60 L 228.90 634.60 L 229.00 636.90 L 229.60 638.90 L 230.70 640.70 L 232.30 642.20 L 234.20 643.20 L 236.40 643.80 L 313.30 651.30 L 315.50 651.80 L 317.40 652.80 L 318.90 654.30 L 320.10 656.10 L 320.70 658.20 L 320.80 660.50 L 317.90 690.60 L 318.00 692.90 L 318.60 695.00 L 319.80 696.80 L 321.30 698.30 L 323.20 699.30 L 325.40 699.80 L 350.40 702.30 L 352.70 702.20 L 354.80 701.50 L 356.60 700.40 L 358.10 698.80 L 359.10 696.90 L 359.60 694.70 L 362.60 664.50 L 363.10 662.30 L 364.10 660.40 L 365.60 658.90 L 367.40 657.70 L 369.50 657.10 L 371.80 657.00 L 381.40 657.90 L 383.60 657.80 L 385.70 657.20 L 387.50 656.00 L 389.00 654.50 L 390.00 652.60 L 390.60 650.40 L 393.00 625.40 L 392.90 623.10 L 392.30 621.00 L 391.10 619.20 L 389.60 617.70 L 387.70 616.70 L 385.40 616.20 L 375.90 615.20 Z M 294.20 604.20 L 327.00 558.30 L 327.70 557.70 L 328.50 557.50 L 330.10 558.10 L 330.50 558.80 L 330.70 559.70 L 325.70 609.10 L 324.50 610.00 L 323.70 610.10 L 295.70 607.40 L 294.60 607.00 L 294.00 606.20 L 293.80 605.20 L 294.20 604.20 Z" fill="url(#SVGID_00000124141278553730447360000002302583966499894148_)" fill-rule="nonzero" group-id="10" node-id="364" stroke="none" target-height="222.29999" target-width="164.1" target-x="228.9" target-y="480"/><path d="M 367.70 620.20 L 365.50 619.60 L 363.60 618.60 L 362.00 617.10 L 360.80 615.30 L 360.20 613.20 L 360.10 611.00 L 372.00 489.00 L 330.30 484.90 L 326.30 485.20 L 322.80 486.80 L 321.30 488.10 L 225.40 621.80 L 223.80 624.30 L 221.90 629.60 L 220.70 639.50 L 220.80 641.80 L 221.40 643.90 L 222.60 645.70 L 224.10 647.20 L 226.00 648.20 L 228.20 648.70 L 305.10 656.20 L 307.30 656.70 L 309.20 657.80 L 310.80 659.20 L 311.90 661.10 L 312.60 663.10 L 312.60 665.40 L 309.70 695.60 L 309.80 697.80 L 310.40 699.90 L 311.60 701.70 L 313.10 703.20 L 315.00 704.20 L 317.30 704.80 L 342.30 707.20 L 344.50 707.10 L 346.60 706.50 L 348.40 705.30 L 349.90 703.80 L 350.90 701.90 L 351.50 699.60 L 354.40 669.50 L 354.90 667.30 L 356.00 665.40 L 357.40 663.80 L 359.30 662.70 L 361.30 662.00 L 363.60 661.90 L 373.20 662.90 L 375.50 662.80 L 377.50 662.10 L 379.30 661.00 L 380.80 659.40 L 381.90 657.50 L 382.40 655.30 L 384.80 630.30 L 384.70 628.00 L 384.10 626.00 L 382.90 624.10 L 381.40 622.70 L 379.50 621.60 L 377.30 621.10 L 367.70 620.20 Z M 286.00 609.20 L 318.80 563.30 L 319.50 562.70 L 320.30 562.40 L 321.90 563.00 L 322.30 563.70 L 322.50 564.70 L 317.50 614.00 L 316.30 615.00 L 315.50 615.10 L 287.50 612.30 L 286.50 611.90 L 285.80 611.20 L 285.60 610.20 L 286.00 609.20 Z" fill="url(#SVGID_00000169535989807726682610000004392481158464567169_)" fill-rule="nonzero" group-id="10" node-id="366" stroke="none" target-height="222.30002" target-width="164.09999" target-x="220.7" target-y="484.9"/></g><g node-id="392"><path d="M 653.90 755.20 L 652.40 753.50 L 651.50 751.60 L 651.10 749.40 L 651.20 747.30 L 651.90 745.20 L 653.10 743.30 L 733.60 650.90 L 701.90 623.30 L 698.50 621.30 L 694.70 620.60 L 692.80 620.70 L 537.10 674.00 L 534.40 675.10 L 529.70 678.30 L 523.00 685.70 L 521.70 687.60 L 521.10 689.70 L 520.90 691.80 L 521.40 693.90 L 522.30 695.90 L 523.80 697.60 L 582.00 748.30 L 583.50 750.00 L 584.50 751.90 L 584.90 754.00 L 584.80 756.20 L 584.10 758.20 L 582.90 760.10 L 563.00 783.00 L 561.70 784.90 L 561.00 786.90 L 560.90 789.10 L 561.30 791.20 L 562.30 793.10 L 563.80 794.90 L 582.70 811.40 L 584.60 812.60 L 586.70 813.30 L 588.80 813.40 L 591.00 813.00 L 592.90 812.00 L 594.60 810.50 L 614.50 787.70 L 616.20 786.20 L 618.20 785.20 L 620.30 784.80 L 622.40 784.90 L 624.50 785.60 L 626.40 786.90 L 633.60 793.20 L 635.50 794.40 L 637.60 795.10 L 639.80 795.20 L 641.90 794.80 L 643.80 793.90 L 645.50 792.40 L 662.00 773.40 L 663.30 771.50 L 663.90 769.40 L 664.10 767.30 L 663.60 765.20 L 662.70 763.20 L 661.20 761.50 L 653.90 755.20 Z M 593.80 698.90 L 647.20 680.60 L 648.10 680.50 L 648.90 680.70 L 649.80 682.10 L 649.80 682.90 L 649.30 683.80 L 616.60 721.10 L 615.10 721.20 L 614.40 720.80 L 593.20 702.30 L 592.60 701.40 L 592.50 700.40 L 592.90 699.50 L 593.80 698.90 Z" fill="url(#SVGID_00000173857067532299798690000013102649193731621030_)" fill-rule="nonzero" group-id="11" node-id="371" stroke="none" target-height="192.80005" target-width="212.69995" target-x="520.9" target-y="620.6"/><path d="M 644.40 754.50 L 642.90 752.80 L 642.00 750.80 L 641.50 748.70 L 641.70 746.60 L 642.30 744.50 L 643.60 742.60 L 724.00 650.10 L 692.40 622.60 L 689.00 620.60 L 685.20 619.80 L 683.30 620.00 L 527.50 673.30 L 524.90 674.40 L 520.20 677.60 L 513.50 685.00 L 512.20 686.90 L 511.50 688.90 L 511.40 691.10 L 511.80 693.20 L 512.80 695.10 L 514.30 696.80 L 572.50 747.50 L 574.00 749.20 L 575.00 751.20 L 575.40 753.30 L 575.20 755.40 L 574.60 757.50 L 573.30 759.40 L 553.40 782.30 L 552.20 784.20 L 551.50 786.20 L 551.40 788.40 L 551.80 790.50 L 552.70 792.40 L 554.30 794.10 L 573.20 810.60 L 575.10 811.90 L 577.20 812.60 L 579.30 812.70 L 581.40 812.30 L 583.40 811.30 L 585.10 809.80 L 605.00 787.00 L 606.70 785.50 L 608.60 784.50 L 610.70 784.10 L 612.90 784.20 L 614.90 784.90 L 616.90 786.10 L 624.10 792.50 L 626.00 793.70 L 628.10 794.40 L 630.20 794.50 L 632.30 794.10 L 634.30 793.10 L 636.00 791.60 L 652.50 772.70 L 653.70 770.80 L 654.40 768.70 L 654.50 766.60 L 654.10 764.50 L 653.20 762.50 L 651.70 760.80 L 644.40 754.50 Z M 584.30 698.20 L 637.60 679.80 L 638.60 679.70 L 639.30 680.00 L 640.30 681.40 L 640.20 682.20 L 639.80 683.10 L 607.10 720.40 L 605.60 720.50 L 604.90 720.10 L 583.60 701.60 L 583.00 700.70 L 583.00 699.70 L 583.40 698.80 L 584.30 698.20 Z" fill="url(#SVGID_00000047772224580762581020000009869017417300400812_)" fill-rule="nonzero" group-id="11" node-id="373" stroke="none" target-height="192.90002" target-width="212.6" target-x="511.4" target-y="619.8"/></g><g node-id="393"><path d="M 494.10 598.70 L 497.70 599.70 L 501.00 601.00 L 504.10 602.80 L 506.90 604.90 L 509.30 607.40 L 511.40 610.10 L 513.20 613.10 L 514.60 616.30 L 515.60 619.60 L 516.10 623.10 L 516.10 626.70 L 515.70 630.40 L 498.90 719.50 L 498.00 723.10 L 496.60 726.40 L 494.80 729.50 L 492.70 732.30 L 490.30 734.80 L 487.50 736.90 L 484.50 738.70 L 481.40 740.00 L 478.00 741.00 L 474.50 741.50 L 470.90 741.60 L 467.20 741.20 L 463.60 740.20 L 460.30 738.90 L 457.30 737.10 L 454.50 735.00 L 452.00 732.50 L 449.90 729.80 L 448.10 726.80 L 446.70 723.60 L 445.80 720.20 L 445.20 716.80 L 445.20 713.20 L 445.60 709.50 L 462.40 620.40 L 463.40 616.70 L 464.70 613.40 L 466.50 610.40 L 468.60 607.60 L 471.00 605.10 L 473.80 603.00 L 476.80 601.20 L 479.90 599.80 L 483.30 598.90 L 486.80 598.30 L 490.40 598.30 L 494.10 598.70 M 501.10 561.80 L 495.70 561.00 L 490.50 560.70 L 485.40 560.80 L 480.30 561.30 L 475.30 562.20 L 465.80 565.00 L 461.20 567.00 L 452.60 572.00 L 444.80 578.20 L 441.30 581.70 L 435.20 589.60 L 432.50 593.90 L 430.20 598.40 L 428.30 603.20 L 426.70 608.20 L 425.50 613.40 L 408.70 702.50 L 407.90 707.80 L 407.60 713.10 L 407.70 718.20 L 408.10 723.20 L 409.00 728.20 L 410.30 733.10 L 413.90 742.40 L 418.80 751.00 L 425.00 758.70 L 432.40 765.50 L 440.80 771.00 L 445.30 773.30 L 450.10 775.30 L 455.00 776.90 L 460.30 778.10 L 465.60 778.80 L 470.80 779.20 L 475.90 779.10 L 481.00 778.60 L 490.80 776.50 L 495.60 774.90 L 504.50 770.60 L 512.70 765.00 L 516.50 761.70 L 523.20 754.40 L 526.10 750.30 L 531.10 741.40 L 533.00 736.70 L 534.60 731.70 L 535.80 726.50 L 552.60 637.40 L 553.40 632.00 L 553.70 626.80 L 553.70 621.70 L 552.30 611.60 L 549.40 602.10 L 545.10 593.10 L 539.50 584.90 L 532.70 577.60 L 524.90 571.50 L 520.50 568.80 L 516.00 566.50 L 511.30 564.60 L 506.30 563.00 L 501.10 561.80 Z" fill="url(#SVGID_00000123406957602986307640000000110530269729484966_)" fill-rule="nonzero" group-id="12" node-id="378" stroke="none" target-height="218.5" target-width="146.1" target-x="407.6" target-y="560.7"/><path d="M 485.50 602.90 L 489.10 603.90 L 492.40 605.20 L 495.50 607.00 L 498.30 609.10 L 500.70 611.50 L 502.80 614.30 L 504.60 617.30 L 506.00 620.40 L 507.00 623.80 L 507.50 627.30 L 507.50 630.90 L 507.10 634.60 L 490.30 723.70 L 489.40 727.30 L 488.00 730.60 L 486.20 733.70 L 484.10 736.50 L 481.70 738.90 L 478.90 741.10 L 475.90 742.90 L 472.80 744.20 L 469.40 745.20 L 465.90 745.70 L 462.30 745.80 L 458.60 745.30 L 455.00 744.40 L 451.70 743.00 L 448.70 741.30 L 445.90 739.10 L 443.40 736.70 L 441.30 734.00 L 439.50 731.00 L 438.10 727.80 L 437.20 724.40 L 436.60 720.90 L 436.60 717.40 L 437.00 713.70 L 453.80 624.50 L 454.80 620.90 L 456.10 617.60 L 457.90 614.60 L 460.00 611.80 L 462.40 609.30 L 465.20 607.20 L 468.20 605.40 L 471.30 604.00 L 474.70 603.10 L 478.20 602.50 L 481.80 602.50 L 485.50 602.90 M 492.50 566.00 L 487.10 565.20 L 481.90 564.90 L 476.80 565.00 L 471.80 565.50 L 466.70 566.30 L 457.20 569.20 L 452.60 571.20 L 444.00 576.10 L 436.30 582.30 L 432.70 585.90 L 426.60 593.70 L 423.90 598.10 L 421.60 602.60 L 419.70 607.40 L 418.10 612.30 L 416.90 617.60 L 400.10 706.70 L 399.30 712.00 L 399.00 717.20 L 399.10 722.40 L 400.40 732.40 L 401.70 737.30 L 405.30 746.60 L 410.20 755.20 L 416.40 762.90 L 423.80 769.60 L 432.20 775.20 L 436.70 777.50 L 441.50 779.50 L 446.40 781.00 L 451.70 782.30 L 457.00 783.00 L 462.20 783.40 L 467.30 783.30 L 472.40 782.80 L 482.30 780.70 L 487.00 779.10 L 495.90 774.80 L 504.10 769.20 L 507.90 765.90 L 514.60 758.60 L 517.50 754.50 L 520.20 750.20 L 522.50 745.60 L 524.40 740.90 L 526.00 735.90 L 527.20 730.70 L 544.00 641.60 L 544.80 636.20 L 545.20 631.00 L 545.10 625.90 L 544.60 620.90 L 543.70 615.80 L 540.80 606.30 L 536.50 597.30 L 530.90 589.10 L 524.10 581.80 L 516.30 575.70 L 511.90 573.00 L 507.40 570.70 L 502.70 568.80 L 497.70 567.20 L 492.50 566.00 Z" fill="url(#SVGID_00000018239125411312182940000012988482998402837410_)" fill-rule="nonzero" group-id="12" node-id="380" stroke="none" target-height="218.5" target-width="146.20001" target-x="399" target-y="564.9"/></g></svg>